<svg xmlns="http://www.w3.org/2000/svg" xmlns:xlink="http://www.w3.org/1999/xlink" width="1080" zoomAndPan="magnify" viewBox="0 0 810 809.999993" height="1080" preserveAspectRatio="xMidYMid meet" version="1.0"><defs><clipPath id="12a34b47d9"><path d="M 307 278 L 427 278 L 427 500.46875 L 307 500.46875 Z M 307 278 " clip-rule="nonzero"/></clipPath><clipPath id="d665087fd3"><path d="M 306.457031 248.46875 L 566.707031 248.46875 L 566.707031 367 L 306.457031 367 Z M 306.457031 248.46875 " clip-rule="nonzero"/></clipPath></defs><path fill="#000000" d="M 415.027344 265.351562 C 394.527344 270.4375 394.558594 284.914062 405.894531 305.738281 C 406.144531 306.199219 406.398438 306.636719 406.648438 307.0625 C 408.4375 301.382812 409.367188 294.875 409.371094 287.582031 C 409.371094 287.070312 409.363281 286.542969 409.359375 286.007812 C 409.273438 280.796875 413.441406 276.480469 418.652344 276.394531 L 418.800781 276.394531 C 423.925781 276.394531 428.164062 280.570312 428.25 285.707031 C 428.257812 286.332031 428.265625 286.957031 428.265625 287.585938 C 428.269531 299.101562 426.398438 309.371094 422.703125 318.210938 C 428.652344 319.488281 434.308594 320.714844 438.957031 332.71875 C 448.234375 356.699219 449.347656 256.832031 415.027344 265.351562 Z M 415.027344 265.351562 " fill-opacity="1" fill-rule="nonzero"/><path fill="#000000" d="M 364.722656 286.890625 C 365.402344 287.050781 366.070312 287.238281 366.726562 287.464844 C 367.386719 287.6875 368.035156 287.945312 368.667969 288.230469 C 369.300781 288.519531 369.917969 288.835938 370.523438 289.1875 C 371.125 289.535156 371.710938 289.910156 372.277344 290.316406 C 372.839844 290.722656 373.386719 291.15625 373.910156 291.617188 C 374.433594 292.078125 374.933594 292.558594 375.410156 293.070312 C 375.882812 293.578125 376.332031 294.109375 376.757812 294.664062 C 377.179688 295.214844 377.578125 295.789062 377.945312 296.378906 C 378.3125 296.972656 378.652344 297.582031 378.957031 298.207031 C 379.265625 298.832031 379.542969 299.472656 379.789062 300.125 C 380.035156 300.777344 380.246094 301.441406 380.425781 302.113281 C 380.605469 302.789062 380.753906 303.46875 380.867188 304.15625 C 380.980469 304.84375 381.0625 305.535156 381.105469 306.230469 C 381.152344 306.929688 381.164062 307.625 381.140625 308.320312 C 381.117188 309.019531 381.0625 309.714844 380.972656 310.40625 C 380.878906 311.097656 380.757812 311.78125 380.597656 312.460938 C 380.441406 313.140625 380.25 313.808594 380.027344 314.46875 C 379.804688 315.128906 379.546875 315.777344 379.261719 316.414062 C 378.972656 317.050781 378.65625 317.667969 378.308594 318.273438 C 377.960938 318.878906 377.585938 319.464844 377.179688 320.03125 C 376.773438 320.597656 376.34375 321.144531 375.882812 321.667969 C 375.425781 322.191406 374.941406 322.691406 374.433594 323.167969 C 373.925781 323.644531 373.394531 324.097656 372.84375 324.523438 C 372.292969 324.945312 371.71875 325.34375 371.128906 325.710938 C 370.539062 326.078125 369.929688 326.417969 369.308594 326.726562 C 368.683594 327.035156 368.046875 327.3125 367.394531 327.558594 C 366.742188 327.804688 366.082031 328.019531 365.410156 328.199219 C 364.738281 328.378906 364.058594 328.527344 363.371094 328.640625 C 362.683594 328.753906 361.992188 328.835938 361.300781 328.878906 C 360.605469 328.925781 359.910156 328.9375 359.214844 328.914062 C 358.519531 328.890625 357.824219 328.835938 357.136719 328.746094 C 356.445312 328.652344 355.761719 328.527344 355.082031 328.371094 C 354.40625 328.210938 353.738281 328.023438 353.078125 327.796875 C 352.417969 327.574219 351.773438 327.316406 351.140625 327.03125 C 350.503906 326.742188 349.886719 326.425781 349.285156 326.074219 C 348.679688 325.726562 348.097656 325.351562 347.53125 324.945312 C 346.964844 324.539062 346.421875 324.105469 345.898438 323.644531 C 345.375 323.1875 344.875 322.703125 344.398438 322.191406 C 343.921875 321.683594 343.472656 321.152344 343.046875 320.597656 C 342.625 320.046875 342.230469 319.472656 341.863281 318.882812 C 341.492188 318.289062 341.15625 317.679688 340.847656 317.054688 C 340.539062 316.429688 340.261719 315.789062 340.019531 315.136719 C 339.773438 314.484375 339.558594 313.820312 339.378906 313.148438 C 339.199219 312.472656 339.050781 311.792969 338.9375 311.105469 C 338.824219 310.417969 338.746094 309.726562 338.699219 309.03125 C 338.652344 308.332031 338.640625 307.636719 338.664062 306.941406 C 338.6875 306.242188 338.746094 305.546875 338.835938 304.855469 C 338.925781 304.164062 339.050781 303.480469 339.207031 302.800781 C 339.367188 302.121094 339.554688 301.453125 339.78125 300.792969 C 340.003906 300.132812 340.257812 299.484375 340.546875 298.847656 C 340.832031 298.210938 341.148438 297.59375 341.496094 296.988281 C 341.84375 296.382812 342.222656 295.800781 342.628906 295.230469 C 343.03125 294.664062 343.464844 294.117188 343.921875 293.59375 C 344.382812 293.070312 344.863281 292.570312 345.371094 292.09375 C 345.878906 291.617188 346.410156 291.164062 346.960938 290.738281 C 347.515625 290.316406 348.085938 289.917969 348.675781 289.550781 C 349.269531 289.183594 349.875 288.84375 350.5 288.535156 C 351.125 288.226562 351.761719 287.949219 352.414062 287.703125 C 353.0625 287.457031 353.726562 287.242188 354.398438 287.0625 C 355.070312 286.882812 355.75 286.734375 356.4375 286.621094 C 357.121094 286.507812 357.8125 286.425781 358.507812 286.382812 C 359.203125 286.335938 359.898438 286.324219 360.59375 286.347656 C 361.289062 286.371094 361.980469 286.425781 362.671875 286.515625 C 363.359375 286.609375 364.042969 286.734375 364.722656 286.890625 Z M 364.722656 286.890625 " fill-opacity="1" fill-rule="nonzero"/><g clip-path="url(#12a34b47d9)"><path fill="#000000" d="M 426.359375 285.738281 C 426.292969 281.558594 422.855469 278.222656 418.683594 278.289062 C 414.511719 278.355469 411.183594 281.800781 411.25 285.984375 C 411.257812 286.527344 411.261719 287.066406 411.261719 287.585938 C 411.257812 296.445312 409.972656 303.476562 407.980469 309.136719 C 407.207031 311.324219 406.335938 313.316406 405.382812 315.117188 C 400.269531 324.757812 392.832031 329.640625 386.363281 332.355469 C 383.148438 333.691406 380.226562 334.421875 378.171875 334.808594 C 377.144531 335 376.335938 335.109375 375.820312 335.164062 C 375.5625 335.195312 375.378906 335.207031 375.277344 335.214844 C 375.238281 335.21875 375.210938 335.222656 375.199219 335.222656 C 375.199219 335.222656 375.195312 335.222656 375.195312 335.222656 C 375.191406 335.222656 375.1875 335.222656 375.1875 335.222656 C 375.035156 335.230469 374.890625 335.25 374.746094 335.265625 L 343.101562 335.265625 C 342.765625 335.265625 342.441406 335.296875 342.121094 335.339844 C 341.132812 335.289062 340.121094 335.429688 339.132812 335.789062 L 339.132812 335.785156 C 338.03125 336.171875 330.257812 339.382812 322.714844 349.972656 C 315.148438 360.542969 307.996094 378.199219 307.027344 406.769531 C 306.882812 410.949219 310.148438 414.457031 314.316406 414.601562 C 314.40625 414.605469 314.496094 414.605469 314.582031 414.605469 C 318.636719 414.605469 321.992188 411.386719 322.132812 407.292969 C 323.054688 380.960938 329.472656 366.550781 335.003906 358.785156 C 335.273438 358.410156 335.539062 358.0625 335.800781 357.71875 L 335.800781 488.738281 C 335.800781 495.203125 341.03125 500.441406 347.480469 500.441406 C 353.929688 500.441406 359.160156 495.203125 359.160156 488.738281 L 359.160156 414.644531 L 363.539062 414.644531 L 363.539062 488.738281 C 363.539062 495.203125 368.765625 500.441406 375.214844 500.441406 C 381.667969 500.441406 386.894531 495.203125 386.894531 488.738281 L 386.894531 348.238281 C 391.128906 346.945312 396.1875 344.855469 401.355469 341.464844 C 407.660156 337.3125 414.050781 331.09375 418.738281 322.207031 C 419.480469 320.804688 420.175781 319.328125 420.824219 317.796875 C 424.289062 309.636719 426.382812 299.644531 426.375 287.585938 C 426.375 286.964844 426.367188 286.351562 426.359375 285.738281 Z M 426.359375 285.738281 " fill-opacity="1" fill-rule="nonzero"/></g><path fill="#000000" d="M 451.796875 472.625 L 455.890625 479.03125 C 456.421875 479.859375 457.550781 480.082031 458.410156 479.53125 C 459.269531 478.976562 459.539062 477.855469 459.007812 477.027344 L 452.109375 466.234375 L 453.136719 445.207031 C 454.800781 445.160156 456.136719 443.800781 456.136719 442.121094 C 456.136719 440.414062 454.753906 439.03125 453.050781 439.03125 L 405.535156 439.03125 C 403.832031 439.03125 402.449219 440.414062 402.449219 442.121094 C 402.449219 443.800781 403.785156 445.160156 405.449219 445.207031 L 408.082031 499.015625 L 450.503906 499.015625 Z M 451.796875 472.625 " fill-opacity="1" fill-rule="nonzero"/><g clip-path="url(#d665087fd3)"><path fill="#000000" d="M 565.773438 249.160156 C 565.328125 248.714844 564.738281 248.46875 564.105469 248.46875 L 479.09375 248.46875 C 479.089844 248.46875 479.089844 248.46875 479.089844 248.46875 C 479.085938 248.46875 479.085938 248.46875 479.082031 248.46875 L 394.082031 248.46875 C 394.078125 248.46875 394.078125 248.46875 394.074219 248.46875 C 394.070312 248.46875 394.066406 248.46875 394.0625 248.46875 L 309.054688 248.46875 C 308.433594 248.46875 307.824219 248.71875 307.386719 249.160156 C 306.949219 249.601562 306.695312 250.210938 306.695312 250.835938 L 306.695312 298.167969 C 306.695312 299.472656 307.753906 300.535156 309.054688 300.535156 C 310.359375 300.535156 311.417969 299.472656 311.417969 298.167969 L 311.417969 253.199219 L 391.710938 253.199219 L 391.710938 264.085938 C 391.710938 265.394531 392.769531 266.453125 394.074219 266.453125 C 395.375 266.453125 396.433594 265.394531 396.433594 264.085938 L 396.433594 253.199219 L 476.726562 253.199219 L 476.726562 362.066406 L 401.632812 362.066406 C 400.328125 362.066406 399.269531 363.125 399.269531 364.433594 C 399.269531 365.738281 400.328125 366.796875 401.632812 366.796875 L 479.078125 366.796875 C 479.082031 366.796875 479.085938 366.800781 479.089844 366.800781 C 479.09375 366.800781 479.09375 366.796875 479.097656 366.796875 L 564.105469 366.796875 C 564.738281 366.796875 565.328125 366.550781 565.777344 366.105469 C 566.222656 365.660156 566.46875 365.0625 566.46875 364.433594 L 566.46875 250.835938 C 566.46875 250.203125 566.222656 249.609375 565.773438 249.160156 Z M 561.742188 362.0625 L 481.449219 362.066406 L 481.449219 253.199219 L 561.742188 253.199219 Z M 561.742188 362.0625 " fill-opacity="1" fill-rule="nonzero"/></g><path fill="#000000" d="M 507.429688 309.527344 C 507.667969 309.527344 507.914062 309.433594 508.097656 309.25 L 524.625 292.683594 C 524.996094 292.3125 524.996094 291.714844 524.625 291.34375 C 524.257812 290.972656 523.660156 290.972656 523.289062 291.34375 L 506.757812 307.910156 C 506.390625 308.28125 506.390625 308.878906 506.757812 309.25 C 506.941406 309.433594 507.1875 309.527344 507.429688 309.527344 Z M 507.429688 309.527344 " fill-opacity="1" fill-rule="nonzero"/><path fill="#000000" d="M 532.972656 301.046875 L 516.445312 317.613281 C 516.074219 317.984375 516.074219 318.582031 516.445312 318.953125 C 516.625 319.136719 516.867188 319.230469 517.109375 319.230469 C 517.351562 319.230469 517.59375 319.136719 517.777344 318.953125 L 534.308594 302.386719 C 534.679688 302.015625 534.679688 301.417969 534.308594 301.046875 C 533.941406 300.679688 533.339844 300.679688 532.972656 301.046875 Z M 532.972656 301.046875 " fill-opacity="1" fill-rule="nonzero"/><path fill="#000000" d="M 501.289062 326.09375 C 501.53125 326.09375 501.773438 326 501.957031 325.816406 L 541.15625 286.53125 C 541.527344 286.160156 541.527344 285.558594 541.15625 285.191406 C 540.789062 284.820312 540.191406 284.820312 539.820312 285.191406 L 500.621094 324.476562 C 500.25 324.847656 500.25 325.445312 500.621094 325.816406 C 500.804688 326 501.046875 326.09375 501.289062 326.09375 Z M 501.289062 326.09375 " fill-opacity="1" fill-rule="nonzero"/></svg>