<svg xmlns="http://www.w3.org/2000/svg" xmlns:xlink="http://www.w3.org/1999/xlink" width="1080" zoomAndPan="magnify" viewBox="0 0 810 809.999993" height="1080" preserveAspectRatio="xMidYMid meet" version="1.0"><defs><clipPath id="e250fed13a"><path d="M 370 42.804688 L 791.160156 42.804688 L 791.160156 106 L 370 106 Z M 370 42.804688 " clip-rule="nonzero"/></clipPath><clipPath id="3aa8f92dfd"><path d="M 396 87 L 766 87 L 766 786.054688 L 396 786.054688 Z M 396 87 " clip-rule="nonzero"/></clipPath><clipPath id="e3ee31e8d9"><path d="M 20.160156 162 L 415 162 L 415 226 L 20.160156 226 Z M 20.160156 162 " clip-rule="nonzero"/></clipPath><clipPath id="00e0e53a94"><path d="M 46 162 L 415 162 L 415 786.054688 L 46 786.054688 Z M 46 162 " clip-rule="nonzero"/></clipPath><clipPath id="7ce58bffb0"><path d="M 152 627 L 311 627 L 311 786.054688 L 152 786.054688 Z M 152 627 " clip-rule="nonzero"/></clipPath><clipPath id="27042ed180"><path d="M 502 627 L 661 627 L 661 786.054688 L 502 786.054688 Z M 502 627 " clip-rule="nonzero"/></clipPath></defs><g clip-path="url(#e250fed13a)"><path fill="#000000" d="M 782.125 105.878906 L 379.902344 105.878906 C 374.914062 105.878906 370.867188 101.828125 370.867188 96.839844 L 370.867188 51.871094 C 370.867188 46.882812 374.914062 42.835938 379.902344 42.835938 L 782.125 42.835938 C 787.113281 42.835938 791.160156 46.882812 791.160156 51.871094 L 791.160156 96.839844 C 791.160156 101.832031 787.113281 105.878906 782.125 105.878906 Z M 388.9375 87.800781 L 773.089844 87.800781 L 773.089844 60.910156 L 388.9375 60.910156 Z M 388.9375 87.800781 " fill-opacity="1" fill-rule="nonzero"/></g><g clip-path="url(#3aa8f92dfd)"><path fill="#000000" d="M 756.058594 786.023438 L 405.972656 786.023438 C 400.984375 786.023438 396.9375 781.976562 396.9375 776.988281 L 396.9375 96.839844 C 396.9375 91.847656 400.984375 87.800781 405.972656 87.800781 L 756.054688 87.800781 C 761.042969 87.800781 765.089844 91.847656 765.089844 96.839844 L 765.089844 776.988281 C 765.09375 781.980469 761.046875 786.023438 756.058594 786.023438 Z M 415.007812 767.949219 L 747.019531 767.949219 L 747.019531 105.878906 L 415.007812 105.878906 Z M 415.007812 767.949219 " fill-opacity="1" fill-rule="nonzero"/></g><path fill="#000000" d="M 540.046875 220.171875 L 471.148438 220.171875 C 466.15625 220.171875 462.113281 216.125 462.113281 211.136719 L 462.113281 141.808594 C 462.113281 136.820312 466.15625 132.769531 471.148438 132.769531 L 540.046875 132.769531 C 545.035156 132.769531 549.082031 136.820312 549.082031 141.808594 L 549.082031 211.136719 C 549.082031 216.125 545.035156 220.171875 540.046875 220.171875 Z M 480.183594 202.097656 L 531.011719 202.097656 L 531.011719 150.847656 L 480.183594 150.847656 Z M 480.183594 202.097656 " fill-opacity="1" fill-rule="nonzero"/><path fill="#000000" d="M 690.878906 220.171875 L 621.980469 220.171875 C 616.992188 220.171875 612.945312 216.125 612.945312 211.136719 L 612.945312 141.808594 C 612.945312 136.820312 616.992188 132.769531 621.980469 132.769531 L 690.878906 132.769531 C 695.867188 132.769531 699.914062 136.820312 699.914062 141.808594 L 699.914062 211.136719 C 699.914062 216.125 695.871094 220.171875 690.878906 220.171875 Z M 631.015625 202.097656 L 681.84375 202.097656 L 681.84375 150.847656 L 631.015625 150.847656 Z M 631.015625 202.097656 " fill-opacity="1" fill-rule="nonzero"/><path fill="#000000" d="M 539.425781 349.457031 L 470.527344 349.457031 C 465.539062 349.457031 461.492188 345.410156 461.492188 340.417969 L 461.492188 271.09375 C 461.492188 266.101562 465.539062 262.054688 470.527344 262.054688 L 539.425781 262.054688 C 544.414062 262.054688 548.460938 266.101562 548.460938 271.09375 L 548.460938 340.417969 C 548.460938 345.410156 544.414062 349.457031 539.425781 349.457031 Z M 479.5625 331.382812 L 530.390625 331.382812 L 530.390625 280.128906 L 479.5625 280.128906 Z M 479.5625 331.382812 " fill-opacity="1" fill-rule="nonzero"/><path fill="#000000" d="M 690.257812 349.457031 L 621.359375 349.457031 C 616.371094 349.457031 612.324219 345.410156 612.324219 340.417969 L 612.324219 271.09375 C 612.324219 266.101562 616.371094 262.054688 621.359375 262.054688 L 690.257812 262.054688 C 695.25 262.054688 699.292969 266.101562 699.292969 271.09375 L 699.292969 340.417969 C 699.292969 345.410156 695.25 349.457031 690.257812 349.457031 Z M 630.394531 331.382812 L 681.222656 331.382812 L 681.222656 280.128906 L 630.394531 280.128906 Z M 630.394531 331.382812 " fill-opacity="1" fill-rule="nonzero"/><path fill="#000000" d="M 538.804688 478.742188 L 469.90625 478.742188 C 464.917969 478.742188 460.871094 474.691406 460.871094 469.703125 L 460.871094 400.375 C 460.871094 395.386719 464.917969 391.339844 469.90625 391.339844 L 538.804688 391.339844 C 543.792969 391.339844 547.839844 395.386719 547.839844 400.375 L 547.839844 469.703125 C 547.839844 474.695312 543.792969 478.742188 538.804688 478.742188 Z M 478.941406 460.664062 L 529.769531 460.664062 L 529.769531 409.414062 L 478.941406 409.414062 Z M 478.941406 460.664062 " fill-opacity="1" fill-rule="nonzero"/><path fill="#000000" d="M 689.640625 478.742188 L 620.738281 478.742188 C 615.75 478.742188 611.703125 474.691406 611.703125 469.703125 L 611.703125 400.375 C 611.703125 395.386719 615.75 391.339844 620.738281 391.339844 L 689.640625 391.339844 C 694.628906 391.339844 698.675781 395.386719 698.675781 400.375 L 698.675781 469.703125 C 698.675781 474.695312 694.628906 478.742188 689.640625 478.742188 Z M 629.773438 460.664062 L 680.605469 460.664062 L 680.605469 409.414062 L 629.773438 409.414062 Z M 629.773438 460.664062 " fill-opacity="1" fill-rule="nonzero"/><path fill="#000000" d="M 538.183594 608.023438 L 469.285156 608.023438 C 464.296875 608.023438 460.25 603.976562 460.25 598.988281 L 460.25 529.660156 C 460.25 524.671875 464.296875 520.625 469.285156 520.625 L 538.183594 520.625 C 543.171875 520.625 547.21875 524.671875 547.21875 529.660156 L 547.21875 598.988281 C 547.21875 603.980469 543.171875 608.023438 538.183594 608.023438 Z M 478.320312 589.949219 L 529.148438 589.949219 L 529.148438 538.699219 L 478.320312 538.699219 Z M 478.320312 589.949219 " fill-opacity="1" fill-rule="nonzero"/><path fill="#000000" d="M 689.019531 608.023438 L 620.117188 608.023438 C 615.128906 608.023438 611.082031 603.976562 611.082031 598.988281 L 611.082031 529.660156 C 611.082031 524.671875 615.128906 520.625 620.117188 520.625 L 689.019531 520.625 C 694.007812 520.625 698.054688 524.671875 698.054688 529.660156 L 698.054688 598.988281 C 698.054688 603.980469 694.007812 608.023438 689.019531 608.023438 Z M 629.152344 589.949219 L 679.984375 589.949219 L 679.984375 538.699219 L 629.152344 538.699219 Z M 629.152344 589.949219 " fill-opacity="1" fill-rule="nonzero"/><g clip-path="url(#e3ee31e8d9)"><path fill="#000000" d="M 405.964844 225.792969 L 29.195312 225.792969 C 24.207031 225.792969 20.160156 221.746094 20.160156 216.753906 L 20.160156 171.789062 C 20.160156 166.796875 24.207031 162.75 29.195312 162.75 L 405.964844 162.75 C 410.953125 162.75 415 166.796875 415 171.789062 C 415 176.777344 410.953125 180.824219 405.964844 180.824219 L 38.230469 180.824219 L 38.230469 207.71875 L 405.964844 207.71875 C 410.953125 207.71875 415 211.765625 415 216.753906 C 415 221.746094 410.957031 225.792969 405.964844 225.792969 Z M 405.964844 225.792969 " fill-opacity="1" fill-rule="nonzero"/></g><g clip-path="url(#00e0e53a94)"><path fill="#000000" d="M 405.964844 786.023438 L 55.882812 786.023438 C 50.894531 786.023438 46.847656 781.976562 46.847656 776.988281 L 46.847656 216.753906 C 46.847656 211.765625 50.894531 207.71875 55.882812 207.71875 C 60.871094 207.71875 64.917969 211.765625 64.917969 216.753906 L 64.917969 767.949219 L 396.929688 767.949219 L 396.929688 171.789062 C 396.929688 166.796875 400.976562 162.75 405.964844 162.75 C 410.953125 162.75 415 166.796875 415 171.789062 L 415 776.988281 C 415 781.980469 410.957031 786.023438 405.964844 786.023438 Z M 405.964844 786.023438 " fill-opacity="1" fill-rule="nonzero"/></g><path fill="#000000" d="M 189.339844 343.835938 L 120.441406 343.835938 C 115.453125 343.835938 111.40625 339.789062 111.40625 334.796875 L 111.40625 265.472656 C 111.40625 260.480469 115.453125 256.433594 120.441406 256.433594 L 189.339844 256.433594 C 194.332031 256.433594 198.375 260.480469 198.375 265.472656 L 198.375 334.796875 C 198.375 339.789062 194.332031 343.835938 189.339844 343.835938 Z M 129.476562 325.757812 L 180.304688 325.757812 L 180.304688 274.507812 L 129.476562 274.507812 Z M 129.476562 325.757812 " fill-opacity="1" fill-rule="nonzero"/><path fill="#000000" d="M 340.175781 343.835938 L 271.277344 343.835938 C 266.289062 343.835938 262.242188 339.789062 262.242188 334.796875 L 262.242188 265.472656 C 262.242188 260.480469 266.289062 256.433594 271.277344 256.433594 L 340.175781 256.433594 C 345.164062 256.433594 349.210938 260.480469 349.210938 265.472656 L 349.210938 334.796875 C 349.210938 339.789062 345.164062 343.835938 340.175781 343.835938 Z M 280.3125 325.757812 L 331.140625 325.757812 L 331.140625 274.507812 L 280.3125 274.507812 Z M 280.3125 325.757812 " fill-opacity="1" fill-rule="nonzero"/><path fill="#000000" d="M 188.722656 473.121094 L 119.820312 473.121094 C 114.832031 473.121094 110.785156 469.074219 110.785156 464.082031 L 110.785156 394.757812 C 110.785156 389.765625 114.832031 385.71875 119.820312 385.71875 L 188.71875 385.71875 C 193.707031 385.71875 197.753906 389.765625 197.753906 394.757812 L 197.753906 464.082031 C 197.757812 469.074219 193.710938 473.121094 188.722656 473.121094 Z M 128.855469 455.046875 L 179.683594 455.046875 L 179.683594 403.792969 L 128.855469 403.792969 Z M 128.855469 455.046875 " fill-opacity="1" fill-rule="nonzero"/><path fill="#000000" d="M 339.554688 473.121094 L 270.65625 473.121094 C 265.667969 473.121094 261.621094 469.074219 261.621094 464.082031 L 261.621094 394.757812 C 261.621094 389.765625 265.667969 385.71875 270.65625 385.71875 L 339.554688 385.71875 C 344.542969 385.71875 348.589844 389.765625 348.589844 394.757812 L 348.589844 464.082031 C 348.589844 469.074219 344.542969 473.121094 339.554688 473.121094 Z M 279.691406 455.046875 L 330.519531 455.046875 L 330.519531 403.792969 L 279.691406 403.792969 Z M 279.691406 455.046875 " fill-opacity="1" fill-rule="nonzero"/><path fill="#000000" d="M 188.097656 602.402344 L 119.199219 602.402344 C 114.210938 602.402344 110.164062 598.355469 110.164062 593.367188 L 110.164062 524.042969 C 110.164062 519.050781 114.210938 515.003906 119.199219 515.003906 L 188.097656 515.003906 C 193.089844 515.003906 197.132812 519.050781 197.132812 524.042969 L 197.132812 593.367188 C 197.132812 598.355469 193.089844 602.402344 188.097656 602.402344 Z M 128.234375 584.328125 L 179.0625 584.328125 L 179.0625 533.078125 L 128.234375 533.078125 Z M 128.234375 584.328125 " fill-opacity="1" fill-rule="nonzero"/><path fill="#000000" d="M 338.933594 602.402344 L 270.035156 602.402344 C 265.046875 602.402344 261 598.355469 261 593.367188 L 261 524.042969 C 261 519.050781 265.046875 515.003906 270.035156 515.003906 L 338.933594 515.003906 C 343.921875 515.003906 347.96875 519.050781 347.96875 524.042969 L 347.96875 593.367188 C 347.96875 598.355469 343.925781 602.402344 338.933594 602.402344 Z M 279.070312 584.328125 L 329.898438 584.328125 L 329.898438 533.078125 L 279.070312 533.078125 Z M 279.070312 584.328125 " fill-opacity="1" fill-rule="nonzero"/><g clip-path="url(#7ce58bffb0)"><path fill="#000000" d="M 301.070312 786.023438 L 161.410156 786.023438 C 156.421875 786.023438 152.375 781.976562 152.375 776.988281 L 152.375 636.460938 C 152.375 631.472656 156.421875 627.425781 161.410156 627.425781 L 301.070312 627.425781 C 306.058594 627.425781 310.105469 631.472656 310.105469 636.460938 L 310.105469 776.988281 C 310.105469 781.980469 306.058594 786.023438 301.070312 786.023438 Z M 170.445312 767.949219 L 292.035156 767.949219 L 292.035156 645.5 L 170.445312 645.5 Z M 170.445312 767.949219 " fill-opacity="1" fill-rule="nonzero"/></g><g clip-path="url(#27042ed180)"><path fill="#000000" d="M 651.152344 786.023438 L 511.492188 786.023438 C 506.503906 786.023438 502.457031 781.976562 502.457031 776.988281 L 502.457031 636.460938 C 502.457031 631.472656 506.503906 627.425781 511.492188 627.425781 L 651.152344 627.425781 C 656.144531 627.425781 660.1875 631.472656 660.1875 636.460938 L 660.1875 776.988281 C 660.1875 781.980469 656.144531 786.023438 651.152344 786.023438 Z M 520.527344 767.949219 L 642.117188 767.949219 L 642.117188 645.5 L 520.527344 645.5 Z M 520.527344 767.949219 " fill-opacity="1" fill-rule="nonzero"/></g></svg>