<svg xmlns="http://www.w3.org/2000/svg" xmlns:xlink="http://www.w3.org/1999/xlink" width="1080" zoomAndPan="magnify" viewBox="0 0 810 809.999993" height="1080" preserveAspectRatio="xMidYMid meet" version="1.0"><defs><clipPath id="4c275eb9ec"><path d="M 355 380 L 400 380 L 400 465.910156 L 355 465.910156 Z M 355 380 " clip-rule="nonzero"/></clipPath><clipPath id="230fe4207b"><path d="M 376 358 L 448 358 L 448 465.910156 L 376 465.910156 Z M 376 358 " clip-rule="nonzero"/></clipPath><clipPath id="ae6350d66d"><path d="M 400 237.160156 L 448 237.160156 L 448 285 L 400 285 Z M 400 237.160156 " clip-rule="nonzero"/></clipPath><clipPath id="89935701e4"><path d="M 271 454 L 283 454 L 283 465.910156 L 271 465.910156 Z M 271 454 " clip-rule="nonzero"/></clipPath><clipPath id="d39168b0cf"><path d="M 323 454 L 334 454 L 334 465.910156 L 323 465.910156 Z M 323 454 " clip-rule="nonzero"/></clipPath><clipPath id="57755e2b9c"><path d="M 492 275 L 518 275 L 518 306.425781 L 492 306.425781 Z M 492 275 " clip-rule="nonzero"/></clipPath><clipPath id="8f5198364b"><path d="M 511 247 L 536.214844 247 L 536.214844 279 L 511 279 Z M 511 247 " clip-rule="nonzero"/></clipPath><clipPath id="dc5555a17e"><path d="M 511 275 L 536.214844 275 L 536.214844 306.425781 L 511 306.425781 Z M 511 275 " clip-rule="nonzero"/></clipPath><clipPath id="46ed929ed5"><path d="M 461.214844 285 L 478 285 L 478 306 L 461.214844 306 Z M 461.214844 285 " clip-rule="nonzero"/></clipPath><clipPath id="f847b3583d"><path d="M 461.214844 266 L 478 266 L 478 288 L 461.214844 288 Z M 461.214844 266 " clip-rule="nonzero"/></clipPath><clipPath id="8b3bf87dcd"><path d="M 486 229.175781 L 503 229.175781 L 503 250 L 486 250 Z M 486 229.175781 " clip-rule="nonzero"/></clipPath><clipPath id="ce1eccb78f"><path d="M 473 229.175781 L 490 229.175781 L 490 250 L 473 250 Z M 473 229.175781 " clip-rule="nonzero"/></clipPath></defs><g clip-path="url(#4c275eb9ec)"><path fill="#000000" d="M 371.667969 383.917969 C 374.855469 399.164062 373.847656 420.410156 357.550781 445.011719 C 353.570312 451.015625 355.214844 459.109375 361.222656 463.085938 C 363.441406 464.554688 365.941406 465.257812 368.414062 465.257812 C 372.644531 465.257812 376.796875 463.203125 379.304688 459.414062 C 393.773438 437.578125 398.683594 417.457031 399.160156 400.804688 L 374.519531 380.78125 C 373.632812 381.816406 372.6875 382.859375 371.667969 383.917969 Z M 371.667969 383.917969 " fill-opacity="1" fill-rule="nonzero"/></g><path fill="#000000" d="M 352.445312 344.714844 C 351.765625 349.78125 352.21875 353.800781 353.425781 357.039062 C 354.0625 359.746094 355.554688 362.277344 357.882812 364.167969 L 365.816406 370.613281 C 368.824219 366.925781 370.980469 363.476562 372.890625 360.414062 C 377.125 353.636719 380.917969 348.367188 387.335938 345.460938 C 386.804688 344.242188 386.472656 342.933594 386.421875 341.5625 L 384.921875 299.578125 C 384.710938 293.65625 389.359375 288.664062 395.285156 288.453125 C 395.414062 288.449219 395.539062 288.445312 395.667969 288.445312 C 401.484375 288.445312 406.203125 293 406.414062 298.8125 L 406.964844 314.300781 C 407.769531 312.910156 408.550781 311.5625 409.289062 310.273438 C 415.445312 301.390625 415.707031 288.363281 407.976562 283.410156 C 407.101562 282.851562 406.148438 282.363281 405.136719 281.953125 C 405.011719 281.894531 404.894531 281.832031 404.765625 281.777344 C 404.261719 281.570312 399.441406 279.613281 392.695312 278.542969 C 381.519531 276.765625 365.054688 277.417969 354.136719 292.449219 C 351.765625 295.710938 352.070312 300.203125 354.859375 303.121094 L 361.640625 310.21875 L 363.371094 312.027344 C 358.488281 321.453125 355.296875 331.300781 352.445312 344.714844 Z M 352.445312 344.714844 " fill-opacity="1" fill-rule="nonzero"/><g clip-path="url(#230fe4207b)"><path fill="#000000" d="M 384.046875 367.378906 C 381.875 370.855469 379.425781 374.765625 376.058594 378.9375 L 405.078125 402.519531 L 422.191406 456.539062 C 423.953125 462.097656 429.089844 465.648438 434.625 465.648438 C 435.929688 465.648438 437.257812 465.449219 438.570312 465.035156 C 445.4375 462.859375 449.246094 455.53125 447.070312 448.660156 L 428.777344 390.921875 C 428.007812 388.496094 426.542969 386.34375 424.566406 384.738281 L 391.757812 358.078125 C 388.703125 359.9375 386.757812 363.035156 384.046875 367.378906 Z M 384.046875 367.378906 " fill-opacity="1" fill-rule="nonzero"/></g><g clip-path="url(#ae6350d66d)"><path fill="#000000" d="M 447.722656 260.855469 C 447.722656 261.625 447.6875 262.394531 447.609375 263.160156 C 447.535156 263.925781 447.421875 264.683594 447.273438 265.4375 C 447.121094 266.191406 446.933594 266.9375 446.710938 267.671875 C 446.488281 268.410156 446.230469 269.132812 445.9375 269.84375 C 445.640625 270.550781 445.3125 271.246094 444.949219 271.925781 C 444.585938 272.601562 444.191406 273.261719 443.765625 273.902344 C 443.339844 274.539062 442.878906 275.15625 442.390625 275.753906 C 441.90625 276.347656 441.386719 276.914062 440.84375 277.460938 C 440.300781 278.003906 439.730469 278.519531 439.136719 279.007812 C 438.542969 279.496094 437.925781 279.953125 437.285156 280.378906 C 436.644531 280.804688 435.988281 281.199219 435.308594 281.5625 C 434.628906 281.925781 433.9375 282.253906 433.226562 282.546875 C 432.515625 282.84375 431.792969 283.101562 431.054688 283.324219 C 430.320312 283.546875 429.574219 283.734375 428.820312 283.886719 C 428.066406 284.035156 427.304688 284.148438 426.539062 284.222656 C 425.773438 284.296875 425.007812 284.335938 424.238281 284.335938 C 423.46875 284.335938 422.699219 284.296875 421.933594 284.222656 C 421.171875 284.148438 420.410156 284.035156 419.65625 283.886719 C 418.902344 283.734375 418.15625 283.546875 417.421875 283.324219 C 416.683594 283.101562 415.960938 282.84375 415.25 282.546875 C 414.539062 282.253906 413.84375 281.925781 413.167969 281.5625 C 412.488281 281.199219 411.828125 280.804688 411.191406 280.378906 C 410.550781 279.953125 409.933594 279.496094 409.339844 279.007812 C 408.742188 278.519531 408.175781 278.003906 407.628906 277.460938 C 407.085938 276.914062 406.570312 276.347656 406.082031 275.753906 C 405.59375 275.15625 405.136719 274.539062 404.710938 273.902344 C 404.28125 273.261719 403.886719 272.601562 403.523438 271.925781 C 403.164062 271.246094 402.832031 270.550781 402.539062 269.84375 C 402.246094 269.132812 401.984375 268.410156 401.761719 267.671875 C 401.539062 266.9375 401.351562 266.191406 401.203125 265.4375 C 401.054688 264.683594 400.941406 263.925781 400.863281 263.160156 C 400.789062 262.394531 400.75 261.625 400.75 260.855469 C 400.75 260.089844 400.789062 259.320312 400.863281 258.554688 C 400.941406 257.789062 401.054688 257.03125 401.203125 256.277344 C 401.351562 255.523438 401.539062 254.777344 401.761719 254.042969 C 401.984375 253.304688 402.246094 252.582031 402.539062 251.871094 C 402.832031 251.160156 403.164062 250.46875 403.523438 249.789062 C 403.886719 249.113281 404.28125 248.453125 404.710938 247.8125 C 405.136719 247.175781 405.59375 246.558594 406.082031 245.960938 C 406.570312 245.367188 407.085938 244.800781 407.628906 244.253906 C 408.175781 243.710938 408.742188 243.195312 409.339844 242.707031 C 409.933594 242.21875 410.550781 241.761719 411.191406 241.335938 C 411.828125 240.910156 412.488281 240.511719 413.167969 240.152344 C 413.84375 239.789062 414.539062 239.460938 415.25 239.164062 C 415.960938 238.871094 416.683594 238.613281 417.421875 238.390625 C 418.15625 238.167969 418.902344 237.980469 419.65625 237.828125 C 420.410156 237.679688 421.171875 237.566406 421.933594 237.492188 C 422.699219 237.417969 423.46875 237.378906 424.238281 237.378906 C 425.007812 237.378906 425.773438 237.417969 426.539062 237.492188 C 427.304688 237.566406 428.066406 237.679688 428.820312 237.828125 C 429.574219 237.980469 430.320312 238.167969 431.054688 238.390625 C 431.792969 238.613281 432.515625 238.871094 433.226562 239.164062 C 433.9375 239.460938 434.628906 239.789062 435.308594 240.152344 C 435.988281 240.511719 436.644531 240.910156 437.285156 241.335938 C 437.925781 241.761719 438.542969 242.21875 439.136719 242.707031 C 439.730469 243.195312 440.300781 243.710938 440.84375 244.253906 C 441.386719 244.800781 441.90625 245.367188 442.390625 245.960938 C 442.878906 246.558594 443.339844 247.175781 443.765625 247.8125 C 444.191406 248.453125 444.585938 249.113281 444.949219 249.789062 C 445.3125 250.46875 445.640625 251.160156 445.9375 251.871094 C 446.230469 252.582031 446.488281 253.304688 446.710938 254.042969 C 446.933594 254.777344 447.121094 255.523438 447.273438 256.277344 C 447.421875 257.03125 447.535156 257.789062 447.609375 258.554688 C 447.6875 259.320312 447.722656 260.089844 447.722656 260.855469 Z M 447.722656 260.855469 " fill-opacity="1" fill-rule="nonzero"/></g><path fill="#000000" d="M 328.285156 380.191406 C 328.285156 373.273438 322.679688 367.667969 315.761719 367.667969 L 289.320312 367.667969 C 282.402344 367.667969 276.792969 373.273438 276.792969 380.191406 L 276.792969 389.582031 L 328.285156 389.582031 Z M 328.285156 380.191406 " fill-opacity="1" fill-rule="nonzero"/><g clip-path="url(#89935701e4)"><path fill="#000000" d="M 282.011719 459.84375 C 282.011719 460.1875 281.980469 460.523438 281.914062 460.859375 C 281.84375 461.195312 281.746094 461.523438 281.617188 461.839844 C 281.484375 462.15625 281.324219 462.457031 281.132812 462.742188 C 280.941406 463.027344 280.726562 463.289062 280.484375 463.53125 C 280.242188 463.773438 279.976562 463.992188 279.691406 464.179688 C 279.40625 464.371094 279.105469 464.53125 278.789062 464.664062 C 278.472656 464.792969 278.148438 464.894531 277.8125 464.960938 C 277.476562 465.027344 277.136719 465.0625 276.792969 465.0625 C 276.449219 465.0625 276.113281 465.027344 275.773438 464.960938 C 275.4375 464.894531 275.113281 464.792969 274.796875 464.664062 C 274.480469 464.53125 274.179688 464.371094 273.894531 464.179688 C 273.609375 463.992188 273.34375 463.773438 273.101562 463.53125 C 272.859375 463.289062 272.644531 463.027344 272.453125 462.742188 C 272.261719 462.457031 272.101562 462.15625 271.972656 461.839844 C 271.839844 461.523438 271.742188 461.195312 271.675781 460.859375 C 271.609375 460.523438 271.574219 460.1875 271.574219 459.84375 C 271.574219 459.5 271.609375 459.160156 271.675781 458.824219 C 271.742188 458.488281 271.839844 458.164062 271.972656 457.847656 C 272.101562 457.53125 272.261719 457.230469 272.453125 456.945312 C 272.644531 456.660156 272.859375 456.394531 273.101562 456.152344 C 273.34375 455.910156 273.609375 455.695312 273.894531 455.503906 C 274.179688 455.316406 274.480469 455.152344 274.796875 455.023438 C 275.113281 454.890625 275.4375 454.792969 275.773438 454.726562 C 276.113281 454.660156 276.449219 454.625 276.792969 454.625 C 277.136719 454.625 277.476562 454.660156 277.8125 454.726562 C 278.148438 454.792969 278.472656 454.890625 278.789062 455.023438 C 279.105469 455.152344 279.40625 455.316406 279.691406 455.503906 C 279.976562 455.695312 280.242188 455.910156 280.484375 456.152344 C 280.726562 456.394531 280.941406 456.660156 281.132812 456.945312 C 281.324219 457.230469 281.484375 457.53125 281.617188 457.847656 C 281.746094 458.164062 281.84375 458.488281 281.914062 458.824219 C 281.980469 459.160156 282.011719 459.5 282.011719 459.84375 Z M 282.011719 459.84375 " fill-opacity="1" fill-rule="nonzero"/></g><g clip-path="url(#d39168b0cf)"><path fill="#000000" d="M 333.507812 459.84375 C 333.507812 460.1875 333.472656 460.523438 333.40625 460.859375 C 333.339844 461.195312 333.242188 461.523438 333.109375 461.839844 C 332.980469 462.15625 332.816406 462.457031 332.628906 462.742188 C 332.4375 463.027344 332.222656 463.289062 331.976562 463.53125 C 331.734375 463.773438 331.472656 463.992188 331.1875 464.179688 C 330.902344 464.371094 330.601562 464.53125 330.285156 464.664062 C 329.96875 464.792969 329.640625 464.894531 329.304688 464.960938 C 328.96875 465.027344 328.628906 465.0625 328.289062 465.0625 C 327.945312 465.0625 327.605469 465.027344 327.269531 464.960938 C 326.933594 464.894531 326.605469 464.792969 326.289062 464.664062 C 325.972656 464.53125 325.671875 464.371094 325.386719 464.179688 C 325.101562 463.992188 324.839844 463.773438 324.597656 463.53125 C 324.355469 463.289062 324.140625 463.027344 323.949219 462.742188 C 323.757812 462.457031 323.597656 462.15625 323.464844 461.839844 C 323.335938 461.523438 323.234375 461.195312 323.167969 460.859375 C 323.101562 460.523438 323.070312 460.1875 323.070312 459.84375 C 323.070312 459.5 323.101562 459.160156 323.167969 458.824219 C 323.234375 458.488281 323.335938 458.164062 323.464844 457.847656 C 323.597656 457.53125 323.757812 457.230469 323.949219 456.945312 C 324.140625 456.660156 324.355469 456.394531 324.597656 456.152344 C 324.839844 455.910156 325.101562 455.695312 325.386719 455.503906 C 325.671875 455.316406 325.972656 455.152344 326.289062 455.023438 C 326.605469 454.890625 326.933594 454.792969 327.269531 454.726562 C 327.605469 454.660156 327.945312 454.625 328.289062 454.625 C 328.628906 454.625 328.96875 454.660156 329.304688 454.726562 C 329.640625 454.792969 329.96875 454.890625 330.285156 455.023438 C 330.601562 455.152344 330.902344 455.316406 331.1875 455.503906 C 331.472656 455.695312 331.734375 455.910156 331.976562 456.152344 C 332.222656 456.394531 332.4375 456.660156 332.628906 456.945312 C 332.816406 457.230469 332.980469 457.53125 333.109375 457.847656 C 333.242188 458.164062 333.339844 458.488281 333.40625 458.824219 C 333.472656 459.160156 333.507812 459.5 333.507812 459.84375 Z M 333.507812 459.84375 " fill-opacity="1" fill-rule="nonzero"/></g><path fill="#000000" d="M 244.175781 441.003906 C 245.035156 445.160156 248.816406 447.324219 266.140625 447.324219 C 267.253906 447.324219 268.433594 447.3125 269.660156 447.296875 L 269.660156 438.949219 C 262.878906 439.046875 258.574219 438.859375 255.851562 438.59375 C 259.078125 436.835938 264.003906 434.640625 269.660156 432.269531 L 269.660156 423.230469 C 249.203125 431.628906 243.023438 435.4375 244.175781 441.003906 Z M 244.175781 441.003906 " fill-opacity="1" fill-rule="nonzero"/><path fill="#000000" d="M 388.542969 347.558594 C 382.488281 350.222656 379 355.167969 374.925781 361.683594 C 369.160156 370.914062 361.261719 383.554688 335.464844 395.839844 C 335.449219 395.847656 335.433594 395.851562 335.417969 395.859375 L 335.417969 405.070312 C 336.632812 404.503906 337.855469 403.945312 339.054688 403.375 C 367.054688 390.042969 375.695312 376.207031 382.007812 366.105469 C 386.53125 358.871094 389.457031 354.214844 399.171875 353.648438 L 393.042969 351.105469 C 391.210938 350.34375 389.679688 349.097656 388.542969 347.558594 Z M 388.542969 347.558594 " fill-opacity="1" fill-rule="nonzero"/><path fill="#000000" d="M 333.332031 452.191406 L 333.332031 391.667969 L 271.746094 391.667969 L 271.746094 452.191406 L 284.621094 452.191406 L 284.621094 454.800781 L 320.460938 454.800781 L 320.460938 452.191406 Z M 294.886719 399.144531 L 327.941406 399.144531 L 327.941406 406.800781 L 294.886719 406.800781 Z M 294.886719 399.144531 " fill-opacity="1" fill-rule="nonzero"/><path fill="#000000" d="M 305.757812 401.40625 L 325.328125 401.40625 L 325.328125 404.539062 L 305.757812 404.539062 Z M 305.757812 401.40625 " fill-opacity="1" fill-rule="nonzero"/><path fill="#000000" d="M 534.367188 451.867188 L 530.714844 451.867188 L 485.992188 406.101562 L 487.160156 404.960938 L 480.554688 398.203125 L 479.390625 399.34375 L 446.53125 365.71875 C 445.3125 367.027344 443.785156 368.011719 442.085938 368.582031 L 475.683594 402.960938 L 474.515625 404.101562 L 481.117188 410.859375 L 482.285156 409.71875 L 526.539062 455.003906 L 526.539062 456.5625 L 523.277344 456.5625 L 523.277344 463.867188 L 553.417969 463.867188 L 553.417969 456.5625 L 534.367188 456.5625 Z M 534.367188 451.867188 " fill-opacity="1" fill-rule="nonzero"/><path fill="#000000" d="M 446.371094 361.597656 C 448.136719 357.339844 446.117188 352.453125 441.859375 350.6875 L 405.320312 335.523438 L 404.011719 298.898438 C 403.847656 294.289062 399.957031 290.691406 395.371094 290.851562 C 390.761719 291.015625 387.15625 294.882812 387.320312 299.492188 L 388.820312 341.476562 C 388.9375 344.738281 390.945312 347.636719 393.964844 348.886719 L 435.457031 366.105469 C 436.503906 366.542969 437.585938 366.746094 438.65625 366.746094 C 441.929688 366.746094 445.035156 364.808594 446.371094 361.597656 Z M 446.371094 361.597656 " fill-opacity="1" fill-rule="nonzero"/><path fill="#000000" d="M 554.828125 441.695312 C 555.371094 441.421875 555.976562 441.25 556.625 441.25 C 557.765625 441.25 558.789062 441.738281 559.519531 442.507812 C 559.875 441.910156 560.09375 441.21875 560.09375 440.472656 C 560.09375 438.269531 558.308594 436.484375 556.105469 436.484375 C 554.367188 436.484375 552.90625 437.605469 552.359375 439.15625 C 553.535156 439.566406 554.449219 440.507812 554.828125 441.695312 Z M 554.828125 441.695312 " fill-opacity="1" fill-rule="nonzero"/><path fill="#000000" d="M 556.476562 442.238281 C 555.953125 442.238281 555.453125 442.351562 555 442.546875 C 555.007812 442.664062 555.035156 442.78125 555.035156 442.902344 C 555.035156 443.757812 554.761719 444.542969 554.304688 445.191406 C 554.519531 444.71875 554.644531 444.203125 554.644531 443.648438 C 554.644531 441.582031 552.96875 439.90625 550.902344 439.90625 C 548.835938 439.90625 547.15625 441.582031 547.15625 443.648438 C 547.15625 443.707031 547.171875 443.757812 547.175781 443.8125 C 547.261719 445.800781 548.890625 447.390625 550.902344 447.390625 C 551.617188 447.390625 552.273438 447.183594 552.839844 446.835938 C 553.230469 448.492188 554.707031 449.726562 556.480469 449.726562 C 557.996094 449.726562 559.292969 448.820312 559.882812 447.523438 C 560.097656 447.054688 560.222656 446.535156 560.222656 445.984375 C 560.222656 443.914062 558.546875 442.238281 556.476562 442.238281 Z M 556.476562 442.238281 " fill-opacity="1" fill-rule="nonzero"/><path fill="#000000" d="M 552.105469 436.050781 C 552.105469 436.292969 552.058594 436.527344 551.964844 436.75 C 551.875 436.972656 551.742188 437.171875 551.570312 437.34375 C 551.398438 437.515625 551.203125 437.644531 550.976562 437.738281 C 550.753906 437.832031 550.519531 437.878906 550.277344 437.878906 C 550.035156 437.878906 549.804688 437.832031 549.578125 437.738281 C 549.355469 437.644531 549.160156 437.515625 548.988281 437.34375 C 548.816406 437.171875 548.683594 436.972656 548.589844 436.75 C 548.5 436.527344 548.453125 436.292969 548.453125 436.050781 C 548.453125 435.808594 548.5 435.578125 548.589844 435.351562 C 548.683594 435.128906 548.816406 434.929688 548.988281 434.761719 C 549.160156 434.589844 549.355469 434.457031 549.578125 434.363281 C 549.804688 434.273438 550.035156 434.226562 550.277344 434.226562 C 550.519531 434.226562 550.753906 434.273438 550.976562 434.363281 C 551.203125 434.457031 551.398438 434.589844 551.570312 434.761719 C 551.742188 434.929688 551.875 435.128906 551.964844 435.351562 C 552.058594 435.578125 552.105469 435.808594 552.105469 436.050781 Z M 552.105469 436.050781 " fill-opacity="1" fill-rule="nonzero"/><path fill="#000000" d="M 566.980469 451.964844 C 566.980469 452.207031 566.933594 452.441406 566.839844 452.664062 C 566.75 452.886719 566.617188 453.085938 566.445312 453.257812 C 566.273438 453.425781 566.078125 453.558594 565.851562 453.652344 C 565.628906 453.746094 565.394531 453.789062 565.152344 453.789062 C 564.910156 453.789062 564.679688 453.746094 564.453125 453.652344 C 564.230469 453.558594 564.03125 453.425781 563.863281 453.257812 C 563.691406 453.085938 563.558594 452.886719 563.464844 452.664062 C 563.375 452.441406 563.328125 452.207031 563.328125 451.964844 C 563.328125 451.722656 563.375 451.488281 563.464844 451.265625 C 563.558594 451.042969 563.691406 450.84375 563.863281 450.671875 C 564.03125 450.503906 564.230469 450.371094 564.453125 450.277344 C 564.679688 450.183594 564.910156 450.140625 565.152344 450.140625 C 565.394531 450.140625 565.628906 450.183594 565.851562 450.277344 C 566.078125 450.371094 566.273438 450.503906 566.445312 450.671875 C 566.617188 450.84375 566.75 451.042969 566.839844 451.265625 C 566.933594 451.488281 566.980469 451.722656 566.980469 451.964844 Z M 566.980469 451.964844 " fill-opacity="1" fill-rule="nonzero"/><path fill="#000000" d="M 566.980469 435.269531 C 566.980469 435.511719 566.933594 435.742188 566.839844 435.96875 C 566.75 436.191406 566.617188 436.390625 566.445312 436.558594 C 566.273438 436.730469 566.078125 436.863281 565.851562 436.957031 C 565.628906 437.046875 565.394531 437.09375 565.152344 437.09375 C 564.910156 437.09375 564.679688 437.046875 564.453125 436.957031 C 564.230469 436.863281 564.03125 436.730469 563.863281 436.558594 C 563.691406 436.390625 563.558594 436.191406 563.464844 435.96875 C 563.375 435.742188 563.328125 435.511719 563.328125 435.269531 C 563.328125 435.027344 563.375 434.792969 563.464844 434.570312 C 563.558594 434.347656 563.691406 434.148438 563.863281 433.976562 C 564.03125 433.804688 564.230469 433.675781 564.453125 433.582031 C 564.679688 433.488281 564.910156 433.441406 565.152344 433.441406 C 565.394531 433.441406 565.628906 433.488281 565.851562 433.582031 C 566.078125 433.675781 566.273438 433.804688 566.445312 433.976562 C 566.617188 434.148438 566.75 434.347656 566.839844 434.570312 C 566.933594 434.792969 566.980469 435.027344 566.980469 435.269531 Z M 566.980469 435.269531 " fill-opacity="1" fill-rule="nonzero"/><path fill="#000000" d="M 540.101562 435.269531 C 540.101562 435.511719 540.054688 435.742188 539.960938 435.96875 C 539.871094 436.191406 539.738281 436.390625 539.566406 436.558594 C 539.394531 436.730469 539.199219 436.863281 538.972656 436.957031 C 538.75 437.046875 538.515625 437.09375 538.273438 437.09375 C 538.03125 437.09375 537.800781 437.046875 537.578125 436.957031 C 537.351562 436.863281 537.15625 436.730469 536.984375 436.558594 C 536.8125 436.390625 536.679688 436.191406 536.585938 435.96875 C 536.496094 435.742188 536.449219 435.511719 536.449219 435.269531 C 536.449219 435.027344 536.496094 434.792969 536.585938 434.570312 C 536.679688 434.347656 536.8125 434.148438 536.984375 433.976562 C 537.15625 433.804688 537.351562 433.675781 537.578125 433.582031 C 537.800781 433.488281 538.03125 433.441406 538.273438 433.441406 C 538.515625 433.441406 538.75 433.488281 538.972656 433.582031 C 539.199219 433.675781 539.394531 433.804688 539.566406 433.976562 C 539.738281 434.148438 539.871094 434.347656 539.960938 434.570312 C 540.054688 434.792969 540.101562 435.027344 540.101562 435.269531 Z M 540.101562 435.269531 " fill-opacity="1" fill-rule="nonzero"/><path fill="#000000" d="M 279.515625 363.613281 C 280.09375 363.601562 280.550781 363.125 280.539062 362.550781 C 280.527344 361.972656 280.058594 361.527344 279.476562 361.527344 C 277 361.574219 275.058594 362.34375 273.710938 363.808594 C 271.625 366.074219 271.792969 369.152344 271.804688 369.28125 C 271.839844 369.835938 272.296875 370.261719 272.84375 370.261719 C 272.867188 370.261719 272.886719 370.257812 272.910156 370.257812 C 273.484375 370.222656 273.921875 369.726562 273.886719 369.148438 C 273.886719 369.128906 273.78125 366.8125 275.246094 365.222656 C 276.195312 364.191406 277.632812 363.648438 279.515625 363.613281 Z M 279.515625 363.613281 " fill-opacity="1" fill-rule="nonzero"/><path fill="#000000" d="M 279.9375 357.976562 C 279.949219 357.398438 279.492188 356.921875 278.914062 356.910156 C 275.21875 356.847656 272.296875 357.851562 270.210938 359.921875 C 267.035156 363.066406 267.042969 367.480469 267.042969 367.667969 C 267.046875 368.238281 267.515625 368.699219 268.085938 368.699219 C 268.089844 368.699219 268.089844 368.699219 268.09375 368.699219 C 268.667969 368.695312 269.132812 368.222656 269.128906 367.648438 C 269.128906 367.609375 269.144531 363.898438 271.695312 361.386719 C 273.363281 359.742188 275.761719 358.945312 278.875 359 C 279.457031 359.019531 279.929688 358.550781 279.9375 357.976562 Z M 279.9375 357.976562 " fill-opacity="1" fill-rule="nonzero"/><g clip-path="url(#57755e2b9c)"><path fill="#bc9c22" d="M 515.261719 306.410156 C 514.804688 304.984375 514.765625 300.890625 512.269531 293.582031 C 510.851562 289.417969 509.046875 286.417969 507.398438 284.410156 C 503.886719 280.152344 498.992188 277.800781 492.816406 277.375 L 517.242188 275.410156 Z M 515.261719 306.410156 " fill-opacity="1" fill-rule="nonzero"/></g><g clip-path="url(#8f5198364b)"><path fill="#bc9c22" d="M 513.773438 247.242188 C 514.234375 248.667969 514.269531 252.761719 516.765625 260.070312 C 518.1875 264.234375 519.988281 267.234375 521.640625 269.242188 C 525.148438 273.5 530.042969 275.851562 536.21875 276.277344 L 511.792969 278.242188 Z M 513.773438 247.242188 " fill-opacity="1" fill-rule="nonzero"/></g><g clip-path="url(#dc5555a17e)"><path fill="#bc9c22" d="M 515.265625 306.410156 C 515.652344 304.960938 515.484375 300.871094 517.605469 293.445312 C 518.816406 289.21875 520.464844 286.128906 522.011719 284.042969 C 525.304688 279.609375 530.074219 277.015625 536.21875 276.28125 L 511.726562 275.550781 Z M 515.265625 306.410156 " fill-opacity="1" fill-rule="nonzero"/></g><path fill="#bc9c22" d="M 513.769531 247.242188 C 513.382812 248.6875 513.550781 252.777344 511.429688 260.203125 C 510.21875 264.433594 508.570312 267.523438 507.023438 269.609375 C 503.734375 274.039062 498.964844 276.632812 492.816406 277.371094 L 517.308594 278.101562 Z M 513.769531 247.242188 " fill-opacity="1" fill-rule="nonzero"/><g clip-path="url(#46ed929ed5)"><path fill="#bc9c22" d="M 476.074219 305.710938 C 475.78125 304.769531 475.792969 302.082031 474.214844 297.257812 C 473.3125 294.511719 472.15625 292.523438 471.085938 291.191406 C 468.816406 288.363281 465.621094 286.78125 461.566406 286.449219 L 477.628906 285.359375 Z M 476.074219 305.710938 " fill-opacity="1" fill-rule="nonzero"/></g><path fill="#bc9c22" d="M 475.585938 266.824219 C 475.875 267.765625 475.867188 270.453125 477.445312 275.277344 C 478.34375 278.023438 479.503906 280.011719 480.570312 281.34375 C 482.839844 284.171875 486.039062 285.753906 490.09375 286.085938 L 474.027344 287.175781 Z M 475.585938 266.824219 " fill-opacity="1" fill-rule="nonzero"/><path fill="#bc9c22" d="M 476.074219 305.710938 C 476.339844 304.765625 476.261719 302.074219 477.71875 297.214844 C 478.550781 294.445312 479.660156 292.429688 480.691406 291.070312 C 482.890625 288.1875 486.046875 286.523438 490.09375 286.089844 L 474.003906 285.40625 Z M 476.074219 305.710938 " fill-opacity="1" fill-rule="nonzero"/><g clip-path="url(#f847b3583d)"><path fill="#bc9c22" d="M 475.585938 266.824219 C 475.316406 267.769531 475.394531 270.460938 473.9375 275.320312 C 473.109375 278.089844 472 280.105469 470.964844 281.464844 C 468.765625 284.347656 465.609375 286.011719 461.566406 286.445312 L 477.652344 287.128906 Z M 475.585938 266.824219 " fill-opacity="1" fill-rule="nonzero"/></g><path fill="#bc9c22" d="M 488.332031 268.351562 C 488.042969 267.410156 488.050781 264.71875 486.472656 259.898438 C 485.574219 257.148438 484.414062 255.164062 483.347656 253.832031 C 481.078125 251.003906 477.882812 249.417969 473.828125 249.085938 L 489.890625 248 Z M 488.332031 268.351562 " fill-opacity="1" fill-rule="nonzero"/><g clip-path="url(#8b3bf87dcd)"><path fill="#bc9c22" d="M 487.847656 229.460938 C 488.136719 230.402344 488.128906 233.09375 489.707031 237.917969 C 490.605469 240.664062 491.761719 242.652344 492.832031 243.980469 C 495.101562 246.808594 498.296875 248.394531 502.351562 248.726562 L 486.289062 249.816406 Z M 487.847656 229.460938 " fill-opacity="1" fill-rule="nonzero"/></g><path fill="#bc9c22" d="M 488.335938 268.351562 C 488.601562 267.402344 488.523438 264.714844 489.980469 259.851562 C 490.808594 257.085938 491.917969 255.066406 492.953125 253.710938 C 495.152344 250.828125 498.308594 249.164062 502.351562 248.730469 L 486.265625 248.042969 Z M 488.335938 268.351562 " fill-opacity="1" fill-rule="nonzero"/><g clip-path="url(#ce1eccb78f)"><path fill="#bc9c22" d="M 487.84375 229.460938 C 487.578125 230.410156 487.65625 233.097656 486.199219 237.960938 C 485.367188 240.730469 484.261719 242.746094 483.226562 244.101562 C 481.027344 246.988281 477.871094 248.652344 473.828125 249.085938 L 489.914062 249.769531 Z M 487.84375 229.460938 " fill-opacity="1" fill-rule="nonzero"/></g></svg>