<svg xmlns="http://www.w3.org/2000/svg" xmlns:xlink="http://www.w3.org/1999/xlink" width="1080" zoomAndPan="magnify" viewBox="0 0 810 809.999993" height="1080" preserveAspectRatio="xMidYMid meet" version="1.0"><defs><clipPath id="985835e06f"><path d="M 94.414062 66.15625 L 700.414062 66.15625 L 700.414062 672.15625 L 94.414062 672.15625 Z M 94.414062 66.15625 " clip-rule="nonzero"/></clipPath></defs><g clip-path="url(#985835e06f)"><path fill="#24336b" d="M 397.441406 66.15625 C 230.324219 66.15625 94.414062 202.066406 94.414062 369.183594 C 94.414062 536.300781 230.324219 672.214844 397.441406 672.214844 C 564.5625 672.214844 700.472656 536.300781 700.472656 369.183594 C 700.472656 202.066406 564.5625 66.15625 397.441406 66.15625 Z M 397.441406 650.957031 C 241.855469 650.957031 115.671875 524.769531 115.671875 369.183594 C 115.671875 213.597656 241.855469 87.410156 397.441406 87.410156 C 553.027344 87.410156 679.214844 213.597656 679.214844 369.183594 C 679.214844 524.769531 553.027344 650.957031 397.441406 650.957031 Z M 397.441406 650.957031 " fill-opacity="1" fill-rule="nonzero"/></g><path fill="#24336b" d="M 550.011719 271.566406 L 447.417969 369.183594 L 550.011719 466.800781 C 552.761719 463.046875 554.519531 458.875 555.289062 454.289062 L 555.289062 284.078125 C 554.519531 279.492188 552.761719 275.320312 550.011719 271.566406 Z M 550.011719 271.566406 " fill-opacity="1" fill-rule="nonzero"/><path fill="#24336b" d="M 397.441406 416.75 L 355.230469 376.570312 L 252.710938 474.113281 C 255.074219 475.667969 257.605469 476.851562 260.316406 477.660156 C 263.023438 478.46875 265.789062 478.867188 268.617188 478.863281 L 526.269531 478.863281 C 529.09375 478.867188 531.863281 478.46875 534.570312 477.660156 C 537.277344 476.851562 539.8125 475.667969 542.171875 474.113281 L 439.65625 376.570312 Z M 397.441406 416.75 " fill-opacity="1" fill-rule="nonzero"/><path fill="#24336b" d="M 244.871094 271.566406 C 242.125 275.320312 240.363281 279.492188 239.597656 284.078125 L 239.597656 454.289062 C 240.363281 458.875 242.125 463.046875 244.871094 466.800781 L 347.464844 369.183594 Z M 244.871094 271.566406 " fill-opacity="1" fill-rule="nonzero"/><path fill="#24336b" d="M 355.230469 361.796875 L 397.441406 402.050781 L 542.171875 264.253906 C 539.8125 262.699219 537.277344 261.515625 534.570312 260.707031 C 531.863281 259.898438 529.09375 259.5 526.269531 259.503906 L 268.617188 259.503906 C 265.789062 259.5 263.023438 259.898438 260.316406 260.707031 C 257.605469 261.515625 255.074219 262.699219 252.710938 264.253906 Z M 355.230469 361.796875 " fill-opacity="1" fill-rule="nonzero"/></svg>