<svg xmlns="http://www.w3.org/2000/svg" xmlns:xlink="http://www.w3.org/1999/xlink" width="1080" zoomAndPan="magnify" viewBox="0 0 810 809.999993" height="1080" preserveAspectRatio="xMidYMid meet" version="1.0"><defs><clipPath id="ffc667cdb8"><path d="M 14.078125 65.964844 L 796.328125 65.964844 L 796.328125 744.714844 L 14.078125 744.714844 Z M 14.078125 65.964844 " clip-rule="nonzero"/></clipPath></defs><path fill="#24336b" d="M 245.625 224.546875 L 179.828125 224.546875 L 179.828125 273.066406 L 233.664062 273.066406 C 239.421875 273.066406 244.296875 277.5 244.296875 283.257812 C 244.296875 289.015625 239.421875 293.449219 233.664062 293.449219 L 179.828125 293.449219 L 179.828125 347.515625 C 179.828125 354.15625 174.511719 359.917969 168.082031 359.917969 C 161.441406 359.917969 155.894531 354.15625 155.894531 347.515625 L 155.894531 216.578125 C 155.894531 209.054688 161.441406 203.507812 168.964844 203.507812 L 245.625 203.507812 C 251.382812 203.507812 256.257812 208.152344 256.257812 213.929688 C 256.257812 219.898438 251.382812 224.546875 245.625 224.546875 Z M 245.625 224.546875 " fill-opacity="1" fill-rule="nonzero"/><path fill="#24336b" d="M 401.835938 348.398438 C 401.835938 354.386719 396.730469 359.472656 390.089844 359.472656 C 384.773438 359.472656 380.570312 356.367188 378.574219 351.949219 L 365.058594 320.261719 L 297.480469 320.261719 L 283.96875 351.949219 C 281.972656 356.382812 277.769531 359.472656 272.453125 359.472656 C 265.808594 359.472656 260.707031 354.386719 260.707031 348.398438 C 260.707031 346.191406 261.378906 343.753906 262.261719 341.96875 L 319.648438 211.476562 C 322.085938 205.714844 325.636719 202.609375 331.164062 202.609375 C 336.710938 202.609375 340.472656 205.714844 342.910156 211.476562 L 400.296875 341.96875 C 401.164062 343.753906 401.835938 346.191406 401.835938 348.398438 Z M 356.847656 301.203125 L 331.148438 241.378906 L 305.660156 301.203125 Z M 356.847656 301.203125 " fill-opacity="1" fill-rule="nonzero"/><path fill="#24336b" d="M 550.0625 343.964844 C 551.617188 345.960938 552.730469 348.171875 552.730469 350.835938 C 552.730469 356.382812 548.296875 360.800781 542.765625 360.800781 C 540.101562 360.800781 537.449219 359.6875 535.898438 357.691406 L 527.472656 349.265625 C 515.726562 356.136719 502.441406 360.128906 488.914062 360.128906 C 450.144531 360.128906 411.8125 327.789062 411.8125 281.035156 C 411.8125 234.28125 450.144531 201.9375 488.914062 201.9375 C 527.683594 201.9375 566.011719 234.28125 566.011719 281.035156 C 566.011719 303.855469 556.933594 323.125 543.191406 336.867188 Z M 510.851562 332.21875 L 493.132812 314.046875 C 491.582031 312.277344 490.253906 309.839844 490.253906 307.175781 C 490.253906 301.859375 494.6875 297.210938 500.21875 297.210938 C 503.097656 297.210938 505.535156 298.324219 507.300781 300.320312 L 526.570312 320.03125 C 535.4375 310.28125 540.96875 296.984375 540.96875 281.035156 C 540.96875 247.351562 516.152344 224.53125 488.898438 224.53125 C 461.871094 224.53125 436.828125 247.351562 436.828125 281.035156 C 436.828125 314.714844 461.855469 337.308594 488.898438 337.308594 C 496.667969 337.324219 503.980469 335.558594 510.851562 332.21875 Z M 510.851562 332.21875 " fill-opacity="1" fill-rule="nonzero"/><g clip-path="url(#ffc667cdb8)"><path fill="#24336b" d="M 697.949219 148.199219 C 685.515625 100.9375 642.441406 65.976562 591.335938 65.976562 L 124.355469 65.976562 C 63.546875 65.976562 14.078125 115.449219 14.078125 176.253906 L 14.078125 391.195312 C 14.078125 447.878906 57.070312 494.699219 112.152344 500.785156 L 113.132812 650.8125 C 113.164062 655.816406 116.222656 660.300781 120.871094 662.148438 C 122.34375 662.71875 123.878906 663 125.386719 663 C 128.6875 663 131.914062 661.671875 134.285156 659.1875 L 207.390625 582.382812 C 211.320312 582.808594 215.292969 583.050781 219.316406 583.050781 L 526.230469 583.050781 L 676.371094 740.785156 C 678.742188 743.253906 681.964844 744.597656 685.269531 744.597656 C 686.792969 744.597656 688.3125 744.300781 689.785156 743.730469 C 694.429688 741.882812 697.507812 737.398438 697.539062 732.394531 L 698.503906 582.382812 C 753.585938 576.296875 796.578125 529.460938 796.578125 472.777344 L 796.578125 257.835938 C 796.578125 200.972656 753.308594 154.023438 697.949219 148.199219 Z M 137.472656 620.253906 L 136.984375 546 L 136.65625 495.382812 L 136.625 489.101562 C 136.589844 486.339844 135.640625 483.785156 134.089844 481.742188 C 131.847656 478.8125 128.3125 476.914062 124.355469 476.914062 C 119.152344 476.914062 114.082031 476.425781 109.140625 475.542969 C 69.109375 468.34375 38.617188 433.269531 38.617188 391.195312 L 38.617188 176.253906 C 38.617188 128.976562 77.078125 90.515625 124.355469 90.515625 L 591.335938 90.515625 C 628.554688 90.515625 660.273438 114.367188 672.101562 147.578125 C 674.851562 155.296875 676.535156 163.542969 676.945312 172.117188 C 677.007812 173.488281 677.042969 174.863281 677.042969 176.253906 L 677.042969 391.195312 C 677.042969 438.472656 638.597656 476.914062 591.335938 476.914062 L 279.160156 476.914062 C 275.804688 476.914062 272.597656 478.289062 270.277344 480.726562 L 198.65625 555.976562 L 179.859375 575.722656 Z M 772.039062 472.777344 C 772.039062 520.054688 733.578125 558.515625 686.316406 558.515625 C 679.5625 558.515625 674.082031 563.945312 674.046875 570.703125 L 673.199219 701.851562 L 540.378906 562.308594 C 538.054688 559.886719 534.851562 558.515625 531.496094 558.515625 L 230.132812 558.515625 L 284.425781 501.453125 L 591.335938 501.453125 C 652.128906 501.453125 701.582031 452 701.582031 391.195312 L 701.582031 176.253906 C 701.582031 175.320312 701.53125 174.40625 701.515625 173.488281 C 741.546875 180.6875 772.039062 215.761719 772.039062 257.835938 Z M 772.039062 472.777344 " fill-opacity="1" fill-rule="nonzero"/></g></svg>