<svg xmlns="http://www.w3.org/2000/svg" xmlns:xlink="http://www.w3.org/1999/xlink" width="1024" zoomAndPan="magnify" viewBox="0 0 768 767.999994" height="1024" preserveAspectRatio="xMidYMid meet" version="1.0"><defs><clipPath id="c383ed5e85"><path d="M 0.871094 53 L 767 53 L 767 667.804688 L 0.871094 667.804688 Z M 0.871094 53 " clip-rule="nonzero"/></clipPath></defs><path fill="#000000" d="M 217.875 308.660156 L 322.15625 308.660156 C 325.507812 308.660156 328.230469 305.941406 328.230469 302.589844 L 328.230469 198.347656 C 328.230469 194.996094 325.507812 192.273438 322.15625 192.273438 L 217.875 192.273438 C 214.523438 192.273438 211.800781 194.996094 211.800781 198.347656 L 211.800781 302.59375 C 211.800781 305.941406 214.515625 308.660156 217.875 308.660156 Z M 223.949219 204.421875 L 316.082031 204.421875 L 316.082031 296.523438 L 223.949219 296.523438 Z M 223.949219 204.421875 " fill-opacity="1" fill-rule="nonzero"/><path fill="#000000" d="M 301.132812 213.285156 L 238.886719 213.285156 C 235.535156 213.285156 232.8125 216.007812 232.8125 219.359375 L 232.8125 281.582031 C 232.8125 284.933594 235.535156 287.65625 238.886719 287.65625 L 301.132812 287.65625 C 304.484375 287.65625 307.207031 284.933594 307.207031 281.582031 L 307.207031 219.359375 C 307.207031 216 304.484375 213.285156 301.132812 213.285156 Z M 295.054688 275.507812 L 244.964844 275.507812 L 244.964844 225.433594 L 295.054688 225.433594 Z M 295.054688 275.507812 " fill-opacity="1" fill-rule="nonzero"/><g clip-path="url(#c383ed5e85)"><path fill="#000000" d="M 743.984375 622.40625 L 741.007812 622.40625 L 741.007812 350.523438 C 750.21875 348.761719 758.0625 343.089844 762.609375 334.5 C 768.132812 324.074219 767.476562 312.019531 760.84375 302.261719 L 661.433594 155.917969 C 660.304688 154.253906 658.421875 153.257812 656.410156 153.257812 L 369.070312 153.257812 L 298.632812 66.632812 C 291.597656 57.980469 281.167969 53.019531 270.007812 53.019531 C 258.851562 53.019531 248.417969 57.980469 241.386719 66.632812 L 18.09375 341.253906 C 12.417969 348.226562 11.296875 357.601562 15.160156 365.722656 C 19.023438 373.839844 27.011719 378.882812 36 378.882812 C 38.472656 378.882812 40.835938 378.367188 43.121094 377.617188 L 43.121094 622.40625 L 23.183594 622.40625 C 10.875 622.40625 0.871094 632.414062 0.871094 645.085938 C 0.871094 657.382812 10.875 667.390625 23.183594 667.390625 L 743.984375 667.390625 C 756.285156 667.390625 766.296875 657.390625 766.296875 644.714844 C 766.296875 632.414062 756.292969 622.40625 743.984375 622.40625 Z M 496.898438 622.40625 L 496.898438 377.617188 C 499.183594 378.359375 501.550781 378.882812 504.019531 378.882812 C 513.007812 378.882812 520.996094 373.839844 524.859375 365.722656 C 527.082031 361.050781 527.605469 355.96875 526.605469 351.160156 L 728.859375 351.160156 L 728.859375 622.410156 L 496.898438 622.410156 Z M 653.191406 165.402344 L 750.796875 309.085938 C 754.851562 315.054688 755.253906 322.433594 751.875 328.816406 C 748.492188 335.199219 742.164062 339.015625 734.933594 339.015625 L 522.945312 339.015625 C 522.085938 339.015625 521.269531 339.203125 520.523438 339.53125 L 378.949219 165.402344 Z M 26.128906 360.5 C 24.269531 356.59375 24.792969 352.269531 27.519531 348.914062 L 250.8125 74.296875 C 255.535156 68.492188 262.53125 65.164062 270.007812 65.164062 C 277.488281 65.164062 284.484375 68.492188 289.207031 74.296875 L 512.503906 348.917969 C 515.230469 352.269531 515.75 356.601562 513.894531 360.503906 C 512.035156 364.410156 508.34375 366.738281 504.023438 366.738281 C 500.71875 366.738281 497.628906 365.265625 495.542969 362.703125 L 274.722656 91.132812 C 273.570312 89.714844 271.839844 88.890625 270.007812 88.890625 C 268.179688 88.890625 266.449219 89.714844 265.296875 91.132812 L 44.488281 362.699219 C 42.398438 365.261719 39.304688 366.738281 36 366.738281 C 31.675781 366.738281 27.988281 364.40625 26.128906 360.5 Z M 55.277344 368.691406 L 270.007812 104.59375 L 484.75 368.6875 L 484.75 622.40625 L 469.574219 622.40625 L 469.574219 438.390625 C 469.574219 435.03125 466.851562 432.316406 463.5 432.316406 L 327.136719 432.316406 C 323.785156 432.316406 321.0625 435.03125 321.0625 438.390625 L 321.0625 622.410156 L 55.277344 622.410156 Z M 457.425781 622.40625 L 333.210938 622.40625 L 333.210938 444.464844 L 457.425781 444.464844 Z M 743.984375 655.246094 L 23.183594 655.246094 C 17.578125 655.246094 13.019531 650.691406 13.019531 644.710938 C 13.019531 639.105469 17.578125 634.550781 23.183594 634.550781 L 743.984375 634.550781 C 749.585938 634.550781 754.148438 639.105469 754.148438 645.082031 C 754.148438 650.691406 749.59375 655.246094 743.984375 655.246094 Z M 743.984375 655.246094 " fill-opacity="1" fill-rule="nonzero"/></g><path fill="#000000" d="M 710.507812 424.664062 L 515.871094 424.664062 C 512.515625 424.664062 509.796875 427.378906 509.796875 430.738281 L 509.796875 557.757812 C 509.796875 561.117188 512.515625 563.832031 515.871094 563.832031 L 710.511719 563.832031 C 713.867188 563.832031 716.589844 561.117188 716.589844 557.757812 L 716.589844 430.738281 C 716.582031 427.378906 713.867188 424.664062 710.507812 424.664062 Z M 704.433594 527.359375 L 619.261719 527.359375 L 619.261719 436.8125 L 704.433594 436.8125 Z M 607.113281 436.8125 L 607.113281 527.359375 L 521.945312 527.359375 L 521.945312 436.8125 Z M 521.945312 551.6875 L 521.945312 539.503906 L 704.4375 539.503906 L 704.4375 551.6875 Z M 521.945312 551.6875 " fill-opacity="1" fill-rule="nonzero"/><path fill="#000000" d="M 286.308594 424.664062 L 91.671875 424.664062 C 88.316406 424.664062 85.597656 427.378906 85.597656 430.738281 L 85.597656 557.757812 C 85.597656 561.117188 88.316406 563.832031 91.671875 563.832031 L 286.316406 563.832031 C 289.667969 563.832031 292.390625 561.117188 292.390625 557.757812 L 292.390625 430.738281 C 292.382812 427.378906 289.667969 424.664062 286.308594 424.664062 Z M 280.234375 527.359375 L 195.066406 527.359375 L 195.066406 436.8125 L 280.234375 436.8125 Z M 182.914062 436.8125 L 182.914062 527.359375 L 97.746094 527.359375 L 97.746094 436.8125 Z M 97.746094 551.6875 L 97.746094 539.503906 L 280.238281 539.503906 L 280.238281 551.6875 Z M 97.746094 551.6875 " fill-opacity="1" fill-rule="nonzero"/><path fill="#000000" d="M 355.0625 556.464844 C 360.152344 556.464844 364.277344 552.339844 364.277344 547.253906 C 364.277344 542.164062 360.152344 538.039062 355.0625 538.039062 C 349.972656 538.039062 345.847656 542.164062 345.847656 547.253906 C 345.847656 552.339844 349.972656 556.464844 355.0625 556.464844 Z M 355.0625 556.464844 " fill-opacity="1" fill-rule="nonzero"/></svg>