<svg xmlns="http://www.w3.org/2000/svg" xmlns:xlink="http://www.w3.org/1999/xlink" width="1080" zoomAndPan="magnify" viewBox="0 0 810 809.999993" height="1080" preserveAspectRatio="xMidYMid meet" version="1.0"><defs><g/><clipPath id="5adf3d1f74"><path d="M 51.535156 446.449219 L 170.65625 446.449219 L 170.65625 559.808594 L 51.535156 559.808594 Z M 51.535156 446.449219 " clip-rule="nonzero"/></clipPath><clipPath id="ea231c8135"><path d="M 111.003906 446.449219 L 125.042969 489.75 L 170.472656 489.75 L 133.71875 516.507812 L 147.757812 559.808594 L 111.003906 533.050781 L 74.25 559.808594 L 88.289062 516.507812 L 51.535156 489.75 L 96.964844 489.75 Z M 111.003906 446.449219 " clip-rule="nonzero"/></clipPath><clipPath id="c2a267bf70"><path d="M 687 60 L 799 60 L 799 201 L 687 201 Z M 687 60 " clip-rule="nonzero"/></clipPath><clipPath id="ed22b0b720"><path d="M 795.203125 55.875 L 838.0625 125.648438 L 695.570312 213.175781 L 652.710938 143.402344 Z M 795.203125 55.875 " clip-rule="nonzero"/></clipPath><clipPath id="1175cc38d6"><path d="M 795.203125 55.875 L 838.0625 125.648438 L 695.570312 213.175781 L 652.710938 143.402344 Z M 795.203125 55.875 " clip-rule="nonzero"/></clipPath><clipPath id="7c423716a5"><path d="M 687 79 L 788 79 L 788 201 L 687 201 Z M 687 79 " clip-rule="nonzero"/></clipPath><clipPath id="1eb8295f00"><path d="M 795.203125 55.875 L 838.0625 125.648438 L 695.570312 213.175781 L 652.710938 143.402344 Z M 795.203125 55.875 " clip-rule="nonzero"/></clipPath><clipPath id="0f563155ef"><path d="M 795.203125 55.875 L 838.0625 125.648438 L 695.570312 213.175781 L 652.710938 143.402344 Z M 795.203125 55.875 " clip-rule="nonzero"/></clipPath><clipPath id="078311f2d8"><path d="M 797.574219 59.523438 L 836.828125 123.421875 L 694.601562 210.785156 L 655.351562 146.882812 Z M 797.574219 59.523438 " clip-rule="nonzero"/></clipPath><clipPath id="04ce91fb16"><path d="M 687.550781 197.09375 C 687.382812 200.558594 688.496094 201.535156 692.945312 200.660156 C 725.253906 194.304688 750.398438 177.195312 763.707031 163.328125 C 782.808594 143.421875 790.855469 119.214844 794.855469 99.632812 C 796.820312 90.011719 797.320312 76.3125 797.78125 70.75 C 798.054688 67.441406 798.324219 60.96875 797.484375 60.5625 C 796.671875 60.171875 794.671875 62.527344 790.34375 66.773438 C 786.71875 70.328125 772.988281 79.0625 766.066406 81.792969 C 729.660156 96.15625 708.507812 120.085938 697.558594 139.8125 C 685.28125 161.9375 688.121094 185.261719 687.550781 197.09375 Z M 687.550781 197.09375 " clip-rule="evenodd"/></clipPath><clipPath id="7ef1be06f2"><path d="M 571.710938 309.402344 L 753 309.402344 L 753 482.148438 L 571.710938 482.148438 Z M 571.710938 309.402344 " clip-rule="nonzero"/></clipPath><clipPath id="190f68aaee"><path d="M 662.332031 309.402344 L 683.726562 375.386719 L 752.953125 375.386719 L 696.945312 416.164062 L 718.339844 482.148438 L 662.332031 441.367188 L 606.324219 482.148438 L 627.71875 416.164062 L 571.710938 375.386719 L 640.9375 375.386719 Z M 662.332031 309.402344 " clip-rule="nonzero"/></clipPath><clipPath id="c7a633227d"><path d="M 67 94 L 620 94 L 620 346 L 67 346 Z M 67 94 " clip-rule="nonzero"/></clipPath><clipPath id="b5105c09f3"><path d="M 76.734375 90.933594 L 620.519531 110.898438 L 611.769531 349.269531 L 67.984375 329.304688 Z M 76.734375 90.933594 " clip-rule="nonzero"/></clipPath><clipPath id="02d0eff8bb"><path d="M 186.554688 94.964844 L 619.878906 110.875 L 501.308594 345.214844 L 67.984375 329.304688 Z M 186.554688 94.964844 " clip-rule="nonzero"/></clipPath><clipPath id="0e488ef799"><path d="M 68 94 L 620 94 L 620 346 L 68 346 Z M 68 94 " clip-rule="nonzero"/></clipPath><clipPath id="0061295899"><path d="M 76.734375 90.933594 L 619.570312 110.863281 L 610.8125 349.4375 L 67.976562 329.503906 Z M 76.734375 90.933594 " clip-rule="nonzero"/></clipPath><clipPath id="d6f850873c"><path d="M 76.753906 90.933594 L 625.8125 111.09375 L 616.992188 351.308594 L 67.933594 331.148438 Z M 76.753906 90.933594 " clip-rule="nonzero"/></clipPath><clipPath id="1edb8bc68e"><path d="M 186.566406 94.964844 L 619.859375 110.875 L 501.296875 345.199219 L 68.003906 329.289062 Z M 186.566406 94.964844 " clip-rule="nonzero"/></clipPath><clipPath id="4995825da4"><path d="M 576 203 L 688 203 L 688 293 L 576 293 Z M 576 203 " clip-rule="nonzero"/></clipPath><clipPath id="3b4b6c45ce"><path d="M 588.984375 292.074219 L 576.253906 221.710938 L 674.988281 203.851562 L 687.71875 274.210938 Z M 588.984375 292.074219 " clip-rule="nonzero"/></clipPath><clipPath id="fa443362fd"><path d="M 588.984375 292.074219 L 576.253906 221.710938 L 674.988281 203.851562 L 687.71875 274.210938 Z M 588.984375 292.074219 " clip-rule="nonzero"/></clipPath><clipPath id="260fe9bc6d"><path d="M 588.984375 292.074219 L 576.253906 221.710938 L 674.988281 203.851562 L 687.71875 274.210938 Z M 588.984375 292.074219 " clip-rule="nonzero"/></clipPath><clipPath id="c27f0038b7"><path d="M 604 271 L 615 271 L 615 277 L 604 277 Z M 604 271 " clip-rule="nonzero"/></clipPath><clipPath id="37dac9f7c5"><path d="M 588.984375 292.074219 L 576.253906 221.710938 L 674.988281 203.851562 L 687.71875 274.210938 Z M 588.984375 292.074219 " clip-rule="nonzero"/></clipPath><clipPath id="fe0341a119"><path d="M 588.984375 292.074219 L 576.253906 221.710938 L 674.988281 203.851562 L 687.71875 274.210938 Z M 588.984375 292.074219 " clip-rule="nonzero"/></clipPath><clipPath id="e0c9d45411"><path d="M 588.984375 292.074219 L 576.253906 221.710938 L 674.988281 203.851562 L 687.71875 274.210938 Z M 588.984375 292.074219 " clip-rule="nonzero"/></clipPath><clipPath id="23ccbcf2b2"><path d="M 604 267 L 615 267 L 615 273 L 604 273 Z M 604 267 " clip-rule="nonzero"/></clipPath><clipPath id="0c12cacf24"><path d="M 588.984375 292.074219 L 576.253906 221.710938 L 674.988281 203.851562 L 687.71875 274.210938 Z M 588.984375 292.074219 " clip-rule="nonzero"/></clipPath><clipPath id="a9715adf2c"><path d="M 588.984375 292.074219 L 576.253906 221.710938 L 674.988281 203.851562 L 687.71875 274.210938 Z M 588.984375 292.074219 " clip-rule="nonzero"/></clipPath><clipPath id="55da6c704c"><path d="M 588.984375 292.074219 L 576.253906 221.710938 L 674.988281 203.851562 L 687.71875 274.210938 Z M 588.984375 292.074219 " clip-rule="nonzero"/></clipPath><clipPath id="f3ce602c1b"><path d="M 653 223 L 664 223 L 664 230 L 653 230 Z M 653 223 " clip-rule="nonzero"/></clipPath><clipPath id="171c3209a0"><path d="M 588.984375 292.074219 L 576.253906 221.710938 L 674.988281 203.851562 L 687.71875 274.210938 Z M 588.984375 292.074219 " clip-rule="nonzero"/></clipPath><clipPath id="d43c729dc8"><path d="M 588.984375 292.074219 L 576.253906 221.710938 L 674.988281 203.851562 L 687.71875 274.210938 Z M 588.984375 292.074219 " clip-rule="nonzero"/></clipPath><clipPath id="948970be9f"><path d="M 588.984375 292.074219 L 576.253906 221.710938 L 674.988281 203.851562 L 687.71875 274.210938 Z M 588.984375 292.074219 " clip-rule="nonzero"/></clipPath><clipPath id="d7bfdd2d73"><path d="M 652 220 L 664 220 L 664 226 L 652 226 Z M 652 220 " clip-rule="nonzero"/></clipPath><clipPath id="2b97c29ac7"><path d="M 588.984375 292.074219 L 576.253906 221.710938 L 674.988281 203.851562 L 687.71875 274.210938 Z M 588.984375 292.074219 " clip-rule="nonzero"/></clipPath><clipPath id="0d25fc662e"><path d="M 588.984375 292.074219 L 576.253906 221.710938 L 674.988281 203.851562 L 687.71875 274.210938 Z M 588.984375 292.074219 " clip-rule="nonzero"/></clipPath><clipPath id="ceced5a2ef"><path d="M 588.984375 292.074219 L 576.253906 221.710938 L 674.988281 203.851562 L 687.71875 274.210938 Z M 588.984375 292.074219 " clip-rule="nonzero"/></clipPath><clipPath id="5ea3e11db1"><path d="M 174.78125 446.449219 L 293.898438 446.449219 L 293.898438 559.808594 L 174.78125 559.808594 Z M 174.78125 446.449219 " clip-rule="nonzero"/></clipPath><clipPath id="b3ada78c8d"><path d="M 234.25 446.449219 L 248.289062 489.75 L 293.71875 489.75 L 256.964844 516.507812 L 271.003906 559.808594 L 234.25 533.050781 L 197.496094 559.808594 L 211.535156 516.507812 L 174.78125 489.75 L 220.210938 489.75 Z M 234.25 446.449219 " clip-rule="nonzero"/></clipPath><clipPath id="f42ddefd81"><path d="M 301.394531 446.449219 L 420.511719 446.449219 L 420.511719 559.808594 L 301.394531 559.808594 Z M 301.394531 446.449219 " clip-rule="nonzero"/></clipPath><clipPath id="29ce2e61fe"><path d="M 360.863281 446.449219 L 374.902344 489.75 L 420.332031 489.75 L 383.578125 516.507812 L 397.617188 559.808594 L 360.863281 533.050781 L 324.109375 559.808594 L 338.148438 516.507812 L 301.394531 489.75 L 346.824219 489.75 Z M 360.863281 446.449219 " clip-rule="nonzero"/></clipPath><clipPath id="64ee53606b"><path d="M 420.332031 446.449219 L 539.449219 446.449219 L 539.449219 559.808594 L 420.332031 559.808594 Z M 420.332031 446.449219 " clip-rule="nonzero"/></clipPath><clipPath id="4d7d108444"><path d="M 479.800781 446.449219 L 493.839844 489.75 L 539.269531 489.75 L 502.515625 516.507812 L 516.554688 559.808594 L 479.800781 533.050781 L 443.046875 559.808594 L 457.085938 516.507812 L 420.332031 489.75 L 465.761719 489.75 Z M 479.800781 446.449219 " clip-rule="nonzero"/></clipPath></defs><g clip-path="url(#5adf3d1f74)"><g clip-path="url(#ea231c8135)"><path fill="#e5dd2e" d="M 51.535156 446.449219 L 170.65625 446.449219 L 170.65625 559.808594 L 51.535156 559.808594 Z M 51.535156 446.449219 " fill-opacity="1" fill-rule="nonzero"/></g></g><path stroke-linecap="butt" transform="matrix(1.153294, 0, 0, 1.153294, 545.077008, 50.107635)" fill="none" stroke-linejoin="miter" d="M 0.000968463 5.000778 L 65.560486 5.000778 " stroke="#000000" stroke-width="10" stroke-opacity="1" stroke-miterlimit="4"/><g fill="#24336b" fill-opacity="1"><g transform="translate(91.353087, 419.769108)"><g><path d="M 40.9375 2.3125 C 22.703125 1.953125 10.0625 -7.140625 6 -22.75 L 27.625 -27.921875 C 29.359375 -21.890625 34.4375 -18.359375 41.53125 -18.15625 C 49.453125 -17.921875 54.015625 -19.5625 54.109375 -22.796875 C 54.390625 -32.15625 4.109375 -29.90625 4.890625 -57 C 5.359375 -72.828125 19.015625 -81.46875 42.875 -80.78125 C 61.265625 -80.234375 73.921875 -71.140625 77.828125 -55.53125 L 56.359375 -50.359375 C 54.625 -56.6875 49.546875 -60.390625 42.28125 -60.609375 C 34.375 -60.828125 29.96875 -59.015625 29.859375 -55.625 C 29.625 -47.40625 79.71875 -48.53125 78.921875 -21.421875 C 78.453125 -5.296875 64.796875 3.34375 40.9375 2.3125 Z M 40.9375 2.3125 "/></g></g></g><g fill="#24336b" fill-opacity="1"><g transform="translate(173.622262, 422.166035)"><g><path d="M 76.53125 -55.875 L 77.1875 -78.46875 L 7.03125 -80.515625 L 6.375 -57.921875 L 28.46875 -57.28125 L 26.78125 0.78125 L 52.921875 1.546875 L 54.609375 -56.515625 Z M 76.53125 -55.875 "/></g></g></g><g fill="#24336b" fill-opacity="1"><g transform="translate(253.149131, 424.483064)"><g><path d="M 58.25 -10.09375 L 62.09375 1.8125 L 87.59375 2.546875 L 60.09375 -78.96875 L 33.640625 -79.75 L 1.125 0.03125 L 26.453125 0.765625 L 31.15625 -10.890625 Z M 51.71875 -29.640625 L 38.8125 -30.015625 L 46.078125 -51.9375 Z M 51.71875 -29.640625 "/></g></g></g><g fill="#24336b" fill-opacity="1"><g transform="translate(341.709484, 427.063285)"><g><path d="M 67.3125 -32.90625 C 73.40625 -36.9375 76.828125 -43.609375 77.09375 -52.640625 C 77.578125 -69.09375 67.828125 -78.75 50.265625 -79.265625 L 7.671875 -80.5 L 5.328125 0.15625 L 31.453125 0.921875 L 32.296875 -28.109375 L 41.984375 -27.828125 C 48.40625 -26.515625 51.828125 -22.0625 51.625 -15.140625 L 51.140625 1.484375 L 75.015625 2.1875 L 75.40625 -11.046875 C 75.6875 -20.71875 72.84375 -28.234375 67.3125 -32.90625 Z M 45.765625 -47.109375 L 32.859375 -47.484375 L 33.21875 -59.5625 L 46.125 -59.1875 C 50.96875 -59.046875 53.8125 -56.875 53.6875 -52.859375 C 53.578125 -49.140625 50.609375 -46.96875 45.765625 -47.109375 Z M 45.765625 -47.109375 "/></g></g></g><g fill="#24336b" fill-opacity="1"><g transform="translate(421.558999, 429.389714)"><g><path d="M 40.9375 2.3125 C 22.703125 1.953125 10.0625 -7.140625 6 -22.75 L 27.625 -27.921875 C 29.359375 -21.890625 34.4375 -18.359375 41.53125 -18.15625 C 49.453125 -17.921875 54.015625 -19.5625 54.109375 -22.796875 C 54.390625 -32.15625 4.109375 -29.90625 4.890625 -57 C 5.359375 -72.828125 19.015625 -81.46875 42.875 -80.78125 C 61.265625 -80.234375 73.921875 -71.140625 77.828125 -55.53125 L 56.359375 -50.359375 C 54.625 -56.6875 49.546875 -60.390625 42.28125 -60.609375 C 34.375 -60.828125 29.96875 -59.015625 29.859375 -55.625 C 29.625 -47.40625 79.71875 -48.53125 78.921875 -21.421875 C 78.453125 -5.296875 64.796875 3.34375 40.9375 2.3125 Z M 40.9375 2.3125 "/></g></g></g><g clip-path="url(#c2a267bf70)"><g clip-path="url(#ed22b0b720)"><g clip-path="url(#1175cc38d6)"><path fill="#4ab814" d="M 687.550781 197.09375 C 687.382812 200.558594 688.496094 201.535156 692.945312 200.660156 C 725.253906 194.304688 750.398438 177.195312 763.707031 163.328125 C 782.808594 143.421875 790.855469 119.214844 794.855469 99.632812 C 796.820312 90.011719 797.320312 76.3125 797.78125 70.75 C 798.054688 67.441406 798.324219 60.96875 797.484375 60.5625 C 796.671875 60.171875 794.671875 62.527344 790.34375 66.773438 C 786.71875 70.328125 772.988281 79.0625 766.066406 81.792969 C 729.660156 96.15625 708.507812 120.085938 697.558594 139.8125 C 685.28125 161.9375 688.121094 185.261719 687.550781 197.09375 Z M 687.550781 197.09375 " fill-opacity="1" fill-rule="evenodd"/></g></g></g><g clip-path="url(#7c423716a5)"><g clip-path="url(#1eb8295f00)"><g clip-path="url(#0f563155ef)"><g clip-path="url(#078311f2d8)"><g clip-path="url(#04ce91fb16)"><path fill="#2f8702" d="M 761.554688 110.265625 C 761.402344 109.394531 761.242188 108.421875 761.097656 107.445312 C 760.894531 106.039062 760.714844 104.640625 760.691406 103.574219 C 760.648438 102.421875 760.730469 101.117188 760.789062 99.789062 C 760.828125 98.90625 760.859375 98.039062 760.878906 97.183594 C 760.894531 96.398438 760.886719 95.671875 760.875 94.976562 C 760.859375 94.09375 760.816406 93.363281 760.792969 92.730469 C 760.808594 92.652344 760.757812 92.574219 760.679688 92.558594 C 760.605469 92.542969 760.527344 92.59375 760.511719 92.671875 C 760.25 93.253906 759.917969 93.90625 759.585938 94.730469 C 759.199219 95.691406 758.800781 96.746094 758.480469 97.902344 C 757.953125 99.785156 757.675781 101.800781 757.515625 103.5 C 757.4375 104.675781 757.480469 106.238281 757.582031 107.808594 C 757.738281 110.269531 758.039062 112.738281 758.160156 113.667969 C 754.847656 116.9375 751.632812 119.96875 748.535156 122.863281 C 743.785156 127.304688 739.28125 131.402344 734.996094 135.394531 C 734.984375 134.082031 734.980469 132.621094 735 131.109375 C 735.027344 128.980469 735.082031 126.761719 735.230469 124.738281 C 735.328125 123.003906 735.632812 121.113281 735.917969 119.203125 C 736.109375 117.914062 736.285156 116.644531 736.449219 115.40625 C 736.605469 114.253906 736.722656 113.195312 736.835938 112.175781 C 736.972656 110.886719 737.046875 109.8125 737.136719 108.886719 C 737.171875 108.78125 737.113281 108.664062 737.003906 108.628906 C 736.898438 108.59375 736.78125 108.652344 736.746094 108.761719 C 736.1875 109.738281 735.464844 110.910156 734.714844 112.371094 C 734.117188 113.53125 733.542969 114.78125 732.996094 116.132812 C 732.683594 116.898438 732.410156 117.675781 732.152344 118.472656 C 731.53125 120.421875 731.085938 122.40625 730.769531 124.222656 C 730.363281 126.847656 730.058594 129.808594 729.847656 132.503906 C 729.535156 136.542969 729.4375 139.960938 729.421875 140.652344 C 728.835938 141.214844 728.253906 141.773438 727.675781 142.335938 C 724.175781 145.742188 720.847656 149.199219 717.664062 152.847656 C 714.347656 156.664062 711.15625 160.664062 708.109375 164.75 C 708.023438 164.394531 707.933594 164.03125 707.851562 163.65625 C 707.367188 161.484375 706.921875 158.988281 706.847656 156.355469 C 706.769531 154.804688 706.898438 152.75 706.964844 150.605469 C 707.007812 149.246094 707.019531 147.894531 707 146.585938 C 706.976562 145.3125 706.90625 144.195312 706.835938 143.164062 C 706.6875 141.003906 706.511719 139.683594 706.511719 139.683594 C 706.542969 139.535156 706.445312 139.390625 706.300781 139.359375 C 706.152344 139.332031 706.007812 139.425781 705.976562 139.574219 C 705.976562 139.574219 705.285156 140.726562 704.390625 142.710938 C 703.769531 144.09375 703.085938 145.71875 702.511719 147.5625 C 701.570312 150.597656 701.070312 153.910156 700.8125 156.203125 C 700.574219 159.277344 700.75 162.242188 701.070312 164.828125 C 701.5 168.28125 702.230469 171.027344 702.636719 172.390625 C 699.234375 177.339844 695.90625 182.425781 692.972656 187.277344 C 683.527344 202.898438 681.5 205.402344 678.109375 212.664062 C 677.132812 214.808594 684.015625 216.558594 684.992188 214.417969 C 688.1875 207.242188 690.316406 206.734375 699.265625 191.257812 C 703.375 184.160156 708.558594 176.660156 713.625 169.507812 C 714.484375 169.695312 716.773438 170.050781 720.910156 169.738281 C 723.441406 169.546875 726.75 169.113281 730.960938 168.207031 C 734.769531 167.3125 738.949219 165.90625 742.570312 164.171875 C 743.714844 163.625 744.769531 163.046875 745.761719 162.453125 C 746.914062 161.769531 747.910156 161.117188 748.8125 160.476562 C 751.269531 158.734375 752.652344 157.492188 752.652344 157.492188 C 752.785156 157.421875 752.839844 157.257812 752.773438 157.125 C 752.703125 156.988281 752.539062 156.933594 752.40625 157 C 752.40625 157 750.613281 157.335938 747.710938 157.96875 C 746.347656 158.265625 744.828125 158.601562 743.121094 159.011719 C 741.964844 159.289062 740.769531 159.59375 739.53125 159.914062 C 737.792969 160.363281 736.011719 160.832031 734.230469 161.214844 C 732.753906 161.535156 731.292969 161.800781 729.882812 161.976562 C 725.992188 162.484375 722.953125 162.621094 720.640625 162.617188 C 719.933594 162.613281 719.308594 162.597656 718.757812 162.566406 C 720.125 160.796875 721.519531 159.054688 722.941406 157.347656 C 728.207031 150.964844 733.992188 145.21875 740.195312 139.148438 C 741.730469 138.949219 745.914062 138.347656 750.355469 137.273438 C 752.769531 136.691406 755.253906 135.976562 757.441406 135.121094 C 758.933594 134.511719 761.003906 133.566406 763.109375 132.414062 C 763.878906 131.996094 764.640625 131.554688 765.390625 131.089844 C 766.722656 130.257812 767.964844 129.429688 769.054688 128.648438 C 771.1875 127.117188 772.566406 125.949219 772.566406 125.949219 C 772.667969 125.898438 772.707031 125.773438 772.65625 125.671875 C 772.605469 125.574219 772.480469 125.53125 772.382812 125.582031 C 772.382812 125.582031 771.027344 125.910156 768.96875 126.503906 C 767.960938 126.792969 766.835938 127.125 765.617188 127.519531 C 764.332031 127.941406 762.996094 128.390625 761.683594 128.867188 C 759.507812 129.652344 757.460938 130.460938 755.972656 130.886719 C 753.910156 131.515625 751.589844 131.976562 749.34375 132.359375 C 748.449219 132.507812 747.566406 132.644531 746.714844 132.761719 C 750.195312 129.324219 753.789062 125.695312 757.476562 121.730469 C 760.253906 118.746094 763.054688 115.550781 765.910156 112.121094 C 766 112.109375 766.09375 112.09375 766.1875 112.066406 C 766.1875 112.066406 768.941406 111.234375 771.601562 110.226562 C 772.945312 109.714844 774.261719 109.167969 775.214844 108.667969 C 776.875 107.757812 779.007812 106.433594 780.835938 104.960938 C 781.984375 104.035156 782.980469 103.09375 783.789062 102.28125 C 784.945312 101.121094 785.589844 100.296875 785.589844 100.296875 C 785.65625 100.25 785.667969 100.160156 785.621094 100.09375 C 785.574219 100.027344 785.484375 100.015625 785.417969 100.0625 C 785.417969 100.0625 784.453125 100.433594 782.964844 101.09375 C 782.246094 101.410156 781.449219 101.769531 780.582031 102.199219 C 779.6875 102.640625 778.761719 103.136719 777.828125 103.625 C 776.386719 104.382812 774.976562 105.140625 773.78125 105.632812 C 772.890625 106.011719 771.667969 106.390625 770.429688 106.753906 C 770.359375 106.773438 770.292969 106.792969 770.222656 106.816406 C 770.617188 106.316406 771.015625 105.808594 771.417969 105.300781 C 773.574219 102.496094 775.996094 98.980469 778.257812 95.425781 C 783.140625 87.738281 787.34375 80.042969 787.34375 80.042969 C 787.433594 79.898438 787.390625 79.707031 787.246094 79.613281 C 787.105469 79.523438 786.914062 79.566406 786.824219 79.710938 C 786.824219 79.710938 781.703125 86.769531 776.074219 93.871094 C 773.519531 97.097656 770.890625 100.328125 768.539062 102.863281 C 766.171875 105.476562 763.839844 107.933594 761.554688 110.265625 Z M 761.554688 110.265625 " fill-opacity="1" fill-rule="evenodd"/></g></g></g></g></g><path stroke-linecap="butt" transform="matrix(-0.804876, -0.825991, 0.825991, -0.804876, 769.381837, 283.415864)" fill="none" stroke-linejoin="miter" d="M 0.000579597 5.000475 L 196.272698 4.998157 " stroke="#000000" stroke-width="10" stroke-opacity="1" stroke-miterlimit="4"/><path stroke-linecap="butt" transform="matrix(-1.127926, 0.240559, -0.240559, -1.127926, 779.044356, 285.035278)" fill="none" stroke-linejoin="miter" d="M 0.00125327 5.001257 L 249.259807 4.998264 " stroke="#000000" stroke-width="10" stroke-opacity="1" stroke-miterlimit="4"/><path stroke-linecap="butt" transform="matrix(0, -1.153294, 1.153294, 0, 772.085293, 547.70308)" fill="none" stroke-linejoin="miter" d="M -0.0000386321 4.999828 L 235.175595 4.999828 " stroke="#000000" stroke-width="10" stroke-opacity="1" stroke-miterlimit="4"/><path stroke-linecap="butt" transform="matrix(1.152863, 0.0315125, -0.0315125, 1.152863, 51.693858, 424.219343)" fill="none" stroke-linejoin="miter" d="M -0.000970134 5.000648 L 455.193863 5.000141 " stroke="#000000" stroke-width="10" stroke-opacity="1" stroke-miterlimit="4"/><path stroke-linecap="butt" transform="matrix(0.293375, -1.115355, 1.115355, 0.293375, 539.49876, 546.236129)" fill="none" stroke-linejoin="miter" d="M -0.000390583 4.998921 L 90.785432 5.001061 " stroke="#000000" stroke-width="10" stroke-opacity="1" stroke-miterlimit="4"/><path stroke-linecap="butt" transform="matrix(1.153294, 0, 0, 1.153294, 546.817488, 478.096748)" fill="none" stroke-linejoin="miter" d="M 3.738353 60.354427 C 69.267387 -13.45253 134.796422 -13.45253 200.328844 60.354427 " stroke="#000000" stroke-width="10" stroke-opacity="1" stroke-miterlimit="4"/><g clip-path="url(#7ef1be06f2)"><g clip-path="url(#190f68aaee)"><path fill="#e5dd2e" d="M 571.710938 309.402344 L 753.230469 309.402344 L 753.230469 482.148438 L 571.710938 482.148438 Z M 571.710938 309.402344 " fill-opacity="1" fill-rule="nonzero"/></g></g><g clip-path="url(#c7a633227d)"><g clip-path="url(#b5105c09f3)"><g clip-path="url(#02d0eff8bb)"><path fill="#24336b" d="M 76.734375 90.933594 L 619.589844 110.867188 L 610.835938 349.238281 L 67.984375 329.304688 Z M 76.734375 90.933594 " fill-opacity="1" fill-rule="nonzero"/></g></g></g><g clip-path="url(#0e488ef799)"><g clip-path="url(#0061295899)"><g clip-path="url(#d6f850873c)"><g clip-path="url(#1edb8bc68e)"><path stroke-linecap="butt" transform="matrix(1.152517, 0.0423161, -0.0423161, 1.152517, 76.754246, 90.934563)" fill="none" stroke-linejoin="miter" d="M 95.280232 -0.00139891 L 471.233872 -0.00031807 L 375.954638 206.813152 L 0.000998507 206.812071 Z M 95.280232 -0.00139891 " stroke="#000000" stroke-width="10.404982" stroke-opacity="1" stroke-miterlimit="4"/></g></g></g></g><g clip-path="url(#4995825da4)"><g clip-path="url(#3b4b6c45ce)"><g clip-path="url(#fa443362fd)"><g clip-path="url(#260fe9bc6d)"><path fill="#1d1d1b" d="M 589.355469 292.007812 L 687.347656 274.277344 L 681.125 239.898438 L 680.835938 238.296875 L 674.617188 203.917969 L 576.625 221.644531 Z M 626.121094 215.992188 L 631.761719 247.175781 L 586.03125 255.449219 L 580.390625 224.265625 Z M 586.320312 257.050781 L 632.050781 248.777344 L 637.691406 279.960938 L 591.960938 288.230469 Z M 683.582031 271.65625 L 639.285156 279.671875 L 633.644531 248.488281 L 677.941406 240.472656 Z M 677.652344 238.875 L 633.355469 246.886719 L 627.714844 215.707031 L 672.007812 207.691406 Z M 677.652344 238.875 " fill-opacity="1" fill-rule="nonzero"/></g></g></g></g><g clip-path="url(#c27f0038b7)"><g clip-path="url(#37dac9f7c5)"><g clip-path="url(#fe0341a119)"><g clip-path="url(#e0c9d45411)"><path fill="#1d1d1b" d="M 605.140625 276.527344 L 604.722656 275.644531 L 614.535156 271.007812 L 614.949219 271.890625 Z M 605.140625 276.527344 " fill-opacity="1" fill-rule="nonzero"/></g></g></g></g><g clip-path="url(#23ccbcf2b2)"><g clip-path="url(#0c12cacf24)"><g clip-path="url(#a9715adf2c)"><g clip-path="url(#55da6c704c)"><path fill="#1d1d1b" d="M 604.492188 272.84375 L 604.078125 271.960938 L 613.890625 267.324219 L 614.304688 268.207031 Z M 604.492188 272.84375 " fill-opacity="1" fill-rule="nonzero"/></g></g></g></g><g clip-path="url(#f3ce602c1b)"><g clip-path="url(#171c3209a0)"><g clip-path="url(#d43c729dc8)"><g clip-path="url(#948970be9f)"><path fill="#1d1d1b" d="M 653.910156 229.550781 L 653.496094 228.667969 L 663.457031 223.96875 L 663.871094 224.851562 Z M 653.910156 229.550781 " fill-opacity="1" fill-rule="nonzero"/></g></g></g></g><g clip-path="url(#d7bfdd2d73)"><g clip-path="url(#2b97c29ac7)"><g clip-path="url(#0d25fc662e)"><g clip-path="url(#ceced5a2ef)"><path fill="#1d1d1b" d="M 653.195312 225.714844 L 652.78125 224.835938 L 662.746094 220.140625 L 663.15625 221.023438 Z M 653.195312 225.714844 " fill-opacity="1" fill-rule="nonzero"/></g></g></g></g><path stroke-linecap="butt" transform="matrix(0, -1.153294, 1.153294, 0, 545.361312, 117.273002)" fill="none" stroke-linejoin="miter" d="M -0.000377527 5.000976 L 58.487004 5.000976 " stroke="#000000" stroke-width="10" stroke-opacity="1" stroke-miterlimit="4"/><path stroke-linecap="butt" transform="matrix(0.0269849, -1.152978, 1.152978, 0.0269849, 608.053029, 123.07097)" fill="none" stroke-linejoin="miter" d="M -0.00101604 4.998712 L 63.655499 4.999564 " stroke="#000000" stroke-width="10" stroke-opacity="1" stroke-miterlimit="4"/><path stroke-linecap="butt" transform="matrix(3.414926, 0, 0, 3.414926, -37.706578, 533.290769)" fill="none" stroke-linejoin="miter" d="M 32.619768 45.433096 C 29.844726 45.433096 27.400264 44.855438 25.284094 43.702412 C 23.169068 42.548241 21.51388 40.814126 20.31853 38.498922 C 19.12318 36.184861 18.526077 33.330892 18.526077 29.937013 C 18.526077 26.544278 19.12318 23.690308 20.31853 21.376248 C 21.51388 19.061043 23.169068 17.326928 25.284094 16.172757 C 27.400264 15.018587 29.844726 14.442074 32.619768 14.442074 C 35.518349 14.442074 37.981113 15.008292 40.006917 16.141873 C 42.03272 17.275454 43.478579 19.002706 44.344493 21.324773 L 39.996622 23.981996 L 39.481878 23.961407 C 38.835588 22.395441 37.960523 21.273299 36.854396 20.592693 C 35.748268 19.913231 34.336725 19.572356 32.619768 19.572356 C 30.1204 19.572356 28.168948 20.400522 26.7677 22.05571 C 25.366453 23.710898 24.666401 26.33838 24.666401 29.937013 C 24.666401 33.523063 25.366453 36.142538 26.7677 37.79887 C 28.168948 39.454058 30.1204 40.28108 32.619768 40.28108 C 36.535254 40.28108 38.931674 38.378815 39.811314 34.573141 L 40.326058 34.573141 L 44.715109 36.860892 C 43.891518 39.718293 42.483407 41.860772 40.490776 43.289473 C 38.499289 44.718173 35.875238 45.433096 32.619768 45.433096 Z M 55.565913 14.874459 L 55.565913 40.013413 L 69.103681 40.013413 L 69.103681 44.999567 L 49.610896 44.999567 L 49.610896 14.874459 Z M 79.955629 31.771789 L 79.955629 40.013413 L 94.337577 40.013413 L 94.337577 44.999567 L 74.000612 44.999567 L 74.000612 14.874459 L 94.00814 14.874459 L 94.00814 19.861756 L 79.955629 19.861756 L 79.955629 26.90803 L 92.236277 26.90803 L 92.236277 31.771789 Z M 124.888206 44.999567 L 118.624344 44.999567 L 116.357182 38.056242 L 104.818909 38.056242 L 102.551747 44.999567 L 96.432013 44.999567 L 106.837849 14.874459 L 114.48237 14.874459 Z M 110.299217 21.158911 L 106.426054 33.048354 L 114.708857 33.048354 L 110.815105 21.158911 Z M 135.017225 44.999567 L 129.247516 44.999567 L 129.247516 14.874459 L 136.068447 14.874459 L 148.163787 34.284884 L 148.699121 34.202525 L 148.699121 14.874459 L 154.42765 14.874459 L 154.42765 44.999567 L 148.328505 44.999567 L 135.533113 24.271397 L 135.017225 24.353756 Z M 168.223934 44.999567 L 162.268917 44.999567 L 162.268917 14.874459 L 168.223934 14.874459 Z M 181.839485 44.999567 L 176.069777 44.999567 L 176.069777 14.874459 L 182.890707 14.874459 L 194.986048 34.284884 L 195.521381 34.202525 L 195.521381 14.874459 L 201.249911 14.874459 L 201.249911 44.999567 L 195.150766 44.999567 L 182.355373 24.271397 L 181.839485 24.353756 Z M 219.805861 45.433096 C 217.291622 45.433096 215.118258 44.85887 213.284626 43.712707 C 211.449849 42.565399 210.036019 40.834716 209.039703 38.519511 C 208.043388 36.205451 207.545802 33.344618 207.545802 29.937013 C 207.545802 26.503098 208.142905 23.628539 209.338255 21.314478 C 210.533605 18.999274 212.192225 17.275454 214.314114 16.141873 C 216.437147 15.008292 218.898767 14.442074 221.701263 14.442074 C 224.586117 14.442074 227.045449 14.977407 229.078116 16.049219 C 231.111927 17.12103 232.540628 18.714449 233.364218 20.829475 L 229.016347 23.467252 L 228.501603 23.446662 C 227.882766 22.100321 227.014565 21.117732 225.894711 20.500039 C 224.774856 19.882346 223.37704 19.572356 221.701263 19.572356 C 219.105809 19.572356 217.120041 20.393658 215.746246 22.03512 C 214.372452 23.676581 213.686126 26.310927 213.686126 29.937013 C 213.686126 33.577969 214.32784 36.222609 215.612413 37.870934 C 216.896985 39.519259 218.795819 40.342849 221.310057 40.342849 C 223.479989 40.342849 225.081415 39.855558 226.110903 38.879832 C 227.141535 37.90525 227.656279 36.449097 227.656279 34.511371 L 227.656279 33.214216 L 220.527646 33.214216 L 220.527646 28.371047 L 233.570116 28.371047 L 233.570116 44.999567 L 227.882766 44.999567 L 227.882766 40.961686 L 227.450381 40.899917 C 226.832689 42.342344 225.894711 43.457622 224.637591 44.24804 C 223.380472 45.037315 221.769895 45.433096 219.805861 45.433096 Z M 219.805861 45.433096 " stroke="#24336b" stroke-width="6.964501" stroke-opacity="1" stroke-miterlimit="4"/><g fill="#ffffff" fill-opacity="1"><g transform="translate(17.465812, 686.962417)"><g><path d="M 56.21875 1.484375 C 46.75 1.484375 38.398438 -0.484375 31.171875 -4.421875 C 23.941406 -8.367188 18.285156 -14.296875 14.203125 -22.203125 C 10.128906 -30.109375 8.09375 -39.851562 8.09375 -51.4375 C 8.09375 -63.019531 10.128906 -72.765625 14.203125 -80.671875 C 18.285156 -88.578125 23.941406 -94.5 31.171875 -98.4375 C 38.398438 -102.382812 46.75 -104.359375 56.21875 -104.359375 C 66.113281 -104.359375 74.519531 -102.421875 81.4375 -98.546875 C 88.363281 -94.679688 93.304688 -88.78125 96.265625 -80.84375 L 81.40625 -71.765625 L 79.65625 -71.84375 C 77.445312 -77.1875 74.453125 -81.019531 70.671875 -83.34375 C 66.898438 -85.664062 62.082031 -86.828125 56.21875 -86.828125 C 47.6875 -86.828125 41.023438 -84 36.234375 -78.34375 C 31.453125 -72.695312 29.0625 -63.726562 29.0625 -51.4375 C 29.0625 -39.195312 31.453125 -30.25 36.234375 -24.59375 C 41.023438 -18.9375 47.6875 -16.109375 56.21875 -16.109375 C 69.59375 -16.109375 77.78125 -22.609375 80.78125 -35.609375 L 82.546875 -35.609375 L 97.53125 -27.796875 C 94.71875 -18.035156 89.910156 -10.710938 83.109375 -5.828125 C 76.304688 -0.953125 67.34375 1.484375 56.21875 1.484375 Z M 56.21875 1.484375 "/></g></g></g><g fill="#ffffff" fill-opacity="1"><g transform="translate(118.34097, 686.962417)"><g><path d="M 33.703125 -102.875 L 33.703125 -17.03125 L 79.9375 -17.03125 L 79.9375 0 L 13.375 0 L 13.375 -102.875 Z M 33.703125 -102.875 "/></g></g></g><g fill="#ffffff" fill-opacity="1"><g transform="translate(201.629801, 686.962417)"><g><path d="M 33.703125 -45.171875 L 33.703125 -17.03125 L 82.828125 -17.03125 L 82.828125 0 L 13.375 0 L 13.375 -102.875 L 81.6875 -102.875 L 81.6875 -85.84375 L 33.703125 -85.84375 L 33.703125 -61.78125 L 75.640625 -61.78125 L 75.640625 -45.171875 Z M 33.703125 -45.171875 "/></g></g></g><g fill="#ffffff" fill-opacity="1"><g transform="translate(290.05384, 686.962417)"><g><path d="M 98.71875 0 L 77.328125 0 L 69.59375 -23.71875 L 30.1875 -23.71875 L 22.453125 0 L 1.546875 0 L 37.078125 -102.875 L 63.1875 -102.875 Z M 48.90625 -81.40625 L 35.671875 -40.8125 L 63.96875 -40.8125 L 50.65625 -81.40625 Z M 48.90625 -81.40625 "/></g></g></g><g fill="#ffffff" fill-opacity="1"><g transform="translate(390.295888, 686.962417)"><g><path d="M 33.078125 0 L 13.375 0 L 13.375 -102.875 L 36.65625 -102.875 L 77.96875 -36.59375 L 79.796875 -36.875 L 79.796875 -102.875 L 99.359375 -102.875 L 99.359375 0 L 78.53125 0 L 34.828125 -70.78125 L 33.078125 -70.5 Z M 33.078125 0 "/></g></g></g><g fill="#ffffff" fill-opacity="1"><g transform="translate(503.059399, 686.962417)"><g><path d="M 33.703125 0 L 13.375 0 L 13.375 -102.875 L 33.703125 -102.875 Z M 33.703125 0 "/></g></g></g><g fill="#ffffff" fill-opacity="1"><g transform="translate(550.190748, 686.962417)"><g><path d="M 33.078125 0 L 13.375 0 L 13.375 -102.875 L 36.65625 -102.875 L 77.96875 -36.59375 L 79.796875 -36.875 L 79.796875 -102.875 L 99.359375 -102.875 L 99.359375 0 L 78.53125 0 L 34.828125 -70.78125 L 33.078125 -70.5 Z M 33.078125 0 "/></g></g></g><g fill="#ffffff" fill-opacity="1"><g transform="translate(662.954259, 686.962417)"><g><path d="M 49.953125 1.484375 C 41.367188 1.484375 33.945312 -0.472656 27.6875 -4.390625 C 21.425781 -8.304688 16.59375 -14.21875 13.1875 -22.125 C 9.789062 -30.03125 8.09375 -39.800781 8.09375 -51.4375 C 8.09375 -63.164062 10.128906 -72.984375 14.203125 -80.890625 C 18.285156 -88.796875 23.953125 -94.679688 31.203125 -98.546875 C 38.453125 -102.421875 46.863281 -104.359375 56.4375 -104.359375 C 66.28125 -104.359375 74.671875 -102.523438 81.609375 -98.859375 C 88.554688 -95.203125 93.441406 -89.765625 96.265625 -82.546875 L 81.40625 -73.53125 L 79.65625 -73.609375 C 77.539062 -78.203125 74.570312 -81.550781 70.75 -83.65625 C 66.925781 -85.769531 62.15625 -86.828125 56.4375 -86.828125 C 47.570312 -86.828125 40.789062 -84.023438 36.09375 -78.421875 C 31.40625 -72.816406 29.0625 -63.820312 29.0625 -51.4375 C 29.0625 -39.007812 31.253906 -29.976562 35.640625 -24.34375 C 40.023438 -18.71875 46.507812 -15.90625 55.09375 -15.90625 C 62.507812 -15.90625 67.972656 -17.566406 71.484375 -20.890625 C 75.003906 -24.222656 76.765625 -29.195312 76.765625 -35.8125 L 76.765625 -40.25 L 52.421875 -40.25 L 52.421875 -56.78125 L 96.96875 -56.78125 L 96.96875 0 L 77.546875 0 L 77.546875 -13.796875 L 76.0625 -14 C 73.957031 -9.070312 70.753906 -5.257812 66.453125 -2.5625 C 62.160156 0.132812 56.660156 1.484375 49.953125 1.484375 Z M 49.953125 1.484375 "/></g></g></g><path stroke-linecap="butt" transform="matrix(2.964365, 0.609166, -0.609166, 2.964365, 286.81118, 79.12865)" fill="none" stroke-linejoin="miter" d="M 19.390724 31.843284 L 18.87553 38.499619 C 18.875598 38.416588 19.301644 38.130059 20.156457 37.640777 C 21.010006 37.151755 22.141157 36.692657 23.546378 36.265527 C 24.952864 35.838138 26.531096 35.624507 28.281075 35.624635 C 32.978909 35.625148 36.702852 36.959045 39.452644 39.625061 C 42.202697 42.292342 43.578591 45.948313 43.5778 50.593494 C 43.578018 53.416039 42.827816 55.979024 41.328197 58.280924 C 39.837948 60.583534 37.728508 62.405909 35.000135 63.749315 C 32.270757 65.094244 29.114314 65.765282 25.531324 65.764959 C 19.260468 65.766168 14.448458 64.421307 11.093544 61.73469 C 7.75027 59.046999 6.0785 55.400437 6.078496 50.79627 L 17.343874 50.796539 C 17.343746 52.546519 17.937251 54.01111 19.125134 55.187523 C 20.322837 56.354013 22.010838 56.937456 24.187613 56.93685 C 26.364648 56.937508 28.03673 56.327719 29.202855 55.109007 C 30.379615 53.890745 30.969261 52.322701 30.96826 50.406919 C 30.968801 48.447335 30.380212 46.859184 29.2035 45.640943 C 28.035898 44.422147 26.385983 43.812429 24.249962 43.812567 C 22.625292 43.813043 21.395934 44.082802 20.562408 44.624372 C 19.739966 45.155758 19.145696 45.656069 18.780861 46.125044 C 18.41729 46.593759 18.192293 46.890365 18.109922 47.015346 L 7.999807 45.608843 L 9.843992 20.969037 L 40.312552 20.968428 L 40.312502 31.843711 Z M 19.390724 31.843284 " stroke="#ffffff" stroke-width="2.4" stroke-opacity="1" stroke-miterlimit="4"/><g clip-path="url(#5ea3e11db1)"><g clip-path="url(#b3ada78c8d)"><path fill="#e5dd2e" d="M 174.78125 446.449219 L 293.898438 446.449219 L 293.898438 559.808594 L 174.78125 559.808594 Z M 174.78125 446.449219 " fill-opacity="1" fill-rule="nonzero"/></g></g><g clip-path="url(#f42ddefd81)"><g clip-path="url(#29ce2e61fe)"><path fill="#e5dd2e" d="M 301.394531 446.449219 L 420.511719 446.449219 L 420.511719 559.808594 L 301.394531 559.808594 Z M 301.394531 446.449219 " fill-opacity="1" fill-rule="nonzero"/></g></g><g clip-path="url(#64ee53606b)"><g clip-path="url(#4d7d108444)"><path fill="#e5dd2e" d="M 420.332031 446.449219 L 539.449219 446.449219 L 539.449219 559.808594 L 420.332031 559.808594 Z M 420.332031 446.449219 " fill-opacity="1" fill-rule="nonzero"/></g></g></svg>