<svg xmlns="http://www.w3.org/2000/svg" xmlns:xlink="http://www.w3.org/1999/xlink" width="1080" zoomAndPan="magnify" viewBox="0 0 810 809.999993" height="1080" preserveAspectRatio="xMidYMid meet" version="1.0"><defs><clipPath id="860b7d2d00"><path d="M 97.863281 97.863281 L 712.113281 97.863281 L 712.113281 712.113281 L 97.863281 712.113281 Z M 97.863281 97.863281 " clip-rule="nonzero"/></clipPath></defs><rect x="-81" width="972" fill="#ffffff" y="-80.999999" height="971.999992" fill-opacity="1"/><rect x="-81" width="972" fill="#ffffff" y="-80.999999" height="971.999992" fill-opacity="1"/><g clip-path="url(#860b7d2d00)"><path fill="#24336b" d="M 404.996094 97.863281 C 235.613281 97.863281 97.863281 235.613281 97.863281 404.996094 C 97.863281 574.375 235.613281 712.125 404.996094 712.125 C 574.375 712.125 712.125 574.375 712.125 404.996094 C 712.125 235.613281 574.375 97.863281 404.996094 97.863281 Z M 404.996094 690.582031 C 247.304688 690.582031 119.410156 562.6875 119.410156 404.996094 C 119.410156 247.304688 247.304688 119.410156 404.996094 119.410156 C 562.6875 119.410156 690.582031 247.304688 690.582031 404.996094 C 690.582031 562.6875 562.6875 690.582031 404.996094 690.582031 Z M 404.996094 690.582031 " fill-opacity="1" fill-rule="nonzero"/></g><path fill="#24336b" d="M 535.183594 515.777344 C 554.28125 492.855469 540.222656 479.484375 527.542969 469.859375 C 514.859375 460.234375 484.988281 447.933594 475.820312 458.933594 C 466.648438 469.9375 451.980469 483.6875 440.675781 480.707031 C 421.574219 475.664062 397.203125 449.917969 378.636719 431.351562 C 360.070312 412.789062 334.324219 388.417969 329.28125 369.316406 C 326.300781 358.007812 339.0625 344.179688 351.054688 334.171875 C 363.050781 324.164062 350.445312 296.199219 340.128906 282.449219 C 329.816406 268.695312 317.132812 255.707031 294.214844 274.808594 C 271.292969 293.910156 242.339844 344.714844 295.742188 422.183594 C 309.417969 442.050781 321.183594 453.507812 338.832031 471.15625 C 356.480469 488.804688 367.941406 500.574219 387.804688 514.246094 C 465.273438 567.652344 516.082031 538.695312 535.183594 515.777344 Z M 535.183594 515.777344 " fill-opacity="1" fill-rule="nonzero"/><path fill="#24336b" d="M 471.003906 416.988281 C 470.339844 416.992188 469.679688 416.933594 469.027344 416.8125 C 468.371094 416.691406 467.734375 416.511719 467.113281 416.273438 C 466.492188 416.03125 465.898438 415.738281 465.332031 415.386719 C 464.769531 415.035156 464.238281 414.636719 463.75 414.1875 C 463.257812 413.738281 462.8125 413.25 462.414062 412.714844 C 462.011719 412.183594 461.667969 411.621094 461.371094 411.023438 C 461.078125 410.425781 460.839844 409.808594 460.664062 409.167969 C 460.484375 408.527344 460.367188 407.875 460.308594 407.210938 C 460.160156 405.546875 459.9375 403.890625 459.640625 402.242188 C 459.347656 400.597656 458.980469 398.96875 458.546875 397.351562 C 458.109375 395.738281 457.605469 394.148438 457.03125 392.578125 C 456.453125 391.007812 455.8125 389.464844 455.105469 387.949219 C 454.394531 386.433594 453.621094 384.953125 452.785156 383.507812 C 451.945312 382.058594 451.046875 380.652344 450.089844 379.28125 C 449.128906 377.914062 448.109375 376.589844 447.035156 375.308594 C 445.960938 374.027344 444.832031 372.796875 443.648438 371.613281 C 442.464844 370.429688 441.234375 369.300781 439.953125 368.226562 C 438.671875 367.152344 437.347656 366.132812 435.980469 365.171875 C 434.609375 364.214844 433.203125 363.316406 431.753906 362.476562 C 430.308594 361.640625 428.828125 360.867188 427.3125 360.15625 C 425.796875 359.449219 424.253906 358.808594 422.683594 358.230469 C 421.113281 357.65625 419.523438 357.152344 417.910156 356.714844 C 416.292969 356.28125 414.664062 355.914062 413.019531 355.621094 C 411.371094 355.324219 409.714844 355.101562 408.050781 354.953125 C 407.347656 354.890625 406.652344 354.757812 405.976562 354.558594 C 405.296875 354.359375 404.644531 354.097656 404.015625 353.769531 C 403.390625 353.441406 402.800781 353.054688 402.25 352.613281 C 401.695312 352.167969 401.195312 351.675781 400.742188 351.132812 C 400.285156 350.589844 399.890625 350.007812 399.550781 349.386719 C 399.210938 348.765625 398.933594 348.117188 398.722656 347.445312 C 398.511719 346.769531 398.367188 346.078125 398.292969 345.375 C 398.214844 344.671875 398.210938 343.96875 398.273438 343.261719 C 398.335938 342.558594 398.464844 341.867188 398.664062 341.1875 C 398.863281 340.507812 399.125 339.855469 399.453125 339.226562 C 399.78125 338.601562 400.167969 338.011719 400.613281 337.460938 C 401.054688 336.910156 401.546875 336.40625 402.089844 335.953125 C 402.632812 335.5 403.214844 335.101562 403.835938 334.761719 C 404.457031 334.421875 405.105469 334.148438 405.78125 333.9375 C 406.457031 333.722656 407.144531 333.578125 407.847656 333.503906 C 408.550781 333.429688 409.257812 333.421875 409.960938 333.484375 C 412.246094 333.691406 414.519531 334 416.78125 334.40625 C 419.039062 334.8125 421.277344 335.316406 423.492188 335.917969 C 425.710938 336.515625 427.894531 337.210938 430.050781 338.003906 C 432.207031 338.792969 434.324219 339.675781 436.402344 340.648438 C 438.480469 341.621094 440.515625 342.683594 442.503906 343.835938 C 444.488281 344.984375 446.421875 346.21875 448.300781 347.535156 C 450.183594 348.855469 452.003906 350.25 453.761719 351.726562 C 455.519531 353.203125 457.210938 354.75 458.835938 356.375 C 460.460938 357.996094 462.011719 359.6875 463.488281 361.445312 C 464.964844 363.199219 466.363281 365.019531 467.683594 366.898438 C 469.003906 368.777344 470.242188 370.707031 471.394531 372.695312 C 472.546875 374.679688 473.609375 376.710938 474.585938 378.789062 C 475.5625 380.867188 476.445312 382.984375 477.238281 385.140625 C 478.03125 387.292969 478.726562 389.480469 479.332031 391.695312 C 479.933594 393.910156 480.4375 396.148438 480.847656 398.40625 C 481.257812 400.664062 481.566406 402.9375 481.777344 405.222656 C 481.839844 405.929688 481.835938 406.636719 481.757812 407.34375 C 481.683594 408.050781 481.539062 408.742188 481.328125 409.417969 C 481.117188 410.097656 480.84375 410.746094 480.503906 411.371094 C 480.164062 411.992188 479.769531 412.578125 479.316406 413.125 C 478.863281 413.671875 478.359375 414.167969 477.808594 414.613281 C 477.257812 415.0625 476.667969 415.449219 476.039062 415.78125 C 475.414062 416.113281 474.757812 416.382812 474.078125 416.585938 C 473.398438 416.789062 472.703125 416.921875 472 416.988281 Z M 471.003906 416.988281 " fill-opacity="1" fill-rule="nonzero"/><path fill="#24336b" d="M 521.125 417.601562 C 520.4375 417.601562 519.753906 417.535156 519.078125 417.40625 C 518.402344 417.277344 517.742188 417.082031 517.105469 416.828125 C 516.464844 416.570312 515.855469 416.257812 515.277344 415.882812 C 514.699219 415.511719 514.160156 415.085938 513.664062 414.609375 C 513.167969 414.132812 512.71875 413.613281 512.320312 413.050781 C 511.925781 412.492188 511.582031 411.894531 511.300781 411.269531 C 511.015625 410.640625 510.792969 409.992188 510.632812 409.324219 C 510.476562 408.652344 510.382812 407.976562 510.351562 407.285156 C 510.273438 405.632812 510.15625 403.984375 510 402.335938 C 509.84375 400.691406 509.652344 399.046875 509.421875 397.410156 C 509.191406 395.773438 508.921875 394.140625 508.617188 392.515625 C 508.308594 390.886719 507.964844 389.269531 507.585938 387.660156 C 507.203125 386.050781 506.785156 384.449219 506.332031 382.859375 C 505.878906 381.269531 505.386719 379.6875 504.859375 378.121094 C 504.332031 376.550781 503.769531 374.996094 503.167969 373.457031 C 502.570312 371.914062 501.9375 370.386719 501.265625 368.871094 C 500.597656 367.359375 499.894531 365.863281 499.15625 364.382812 C 498.417969 362.902344 497.644531 361.441406 496.839844 359.996094 C 496.03125 358.550781 495.191406 357.125 494.320312 355.71875 C 493.449219 354.3125 492.546875 352.925781 491.609375 351.5625 C 490.675781 350.199219 489.710938 348.855469 488.710938 347.535156 C 487.714844 346.214844 486.6875 344.921875 485.628906 343.648438 C 484.574219 342.375 483.488281 341.128906 482.371094 339.90625 C 481.257812 338.683594 480.113281 337.484375 478.945312 336.316406 C 477.773438 335.148438 476.578125 334.003906 475.355469 332.890625 C 474.132812 331.773438 472.886719 330.6875 471.613281 329.632812 C 470.339844 328.574219 469.046875 327.546875 467.726562 326.550781 C 466.40625 325.550781 465.0625 324.585938 463.699219 323.652344 C 462.335938 322.714844 460.949219 321.8125 459.542969 320.941406 C 458.136719 320.066406 456.710938 319.230469 455.265625 318.421875 C 453.820312 317.617188 452.359375 316.84375 450.878906 316.105469 C 449.398438 315.367188 447.902344 314.664062 446.386719 313.996094 C 444.875 313.324219 443.347656 312.691406 441.804688 312.09375 C 440.265625 311.492188 438.707031 310.929688 437.140625 310.402344 C 435.574219 309.875 433.992188 309.382812 432.402344 308.929688 C 430.8125 308.476562 429.210938 308.058594 427.601562 307.675781 C 425.992188 307.296875 424.375 306.953125 422.746094 306.644531 C 421.121094 306.339844 419.488281 306.070312 417.851562 305.839844 C 416.214844 305.609375 414.570312 305.417969 412.925781 305.261719 C 411.277344 305.105469 409.628906 304.988281 407.976562 304.910156 C 407.265625 304.878906 406.570312 304.777344 405.882812 304.605469 C 405.195312 304.4375 404.53125 304.199219 403.890625 303.898438 C 403.25 303.597656 402.644531 303.238281 402.074219 302.820312 C 401.503906 302.398438 400.980469 301.925781 400.503906 301.402344 C 400.027344 300.878906 399.605469 300.316406 399.238281 299.710938 C 398.871094 299.101562 398.570312 298.46875 398.328125 297.800781 C 398.089844 297.136719 397.914062 296.453125 397.808594 295.753906 C 397.703125 295.050781 397.667969 294.347656 397.699219 293.640625 C 397.730469 292.933594 397.832031 292.234375 398.003906 291.550781 C 398.171875 290.863281 398.40625 290.199219 398.707031 289.554688 C 399.007812 288.914062 399.371094 288.308594 399.789062 287.738281 C 400.210938 287.167969 400.683594 286.644531 401.203125 286.167969 C 401.726562 285.691406 402.292969 285.269531 402.898438 284.90625 C 403.503906 284.539062 404.140625 284.234375 404.808594 283.996094 C 405.472656 283.753906 406.15625 283.582031 406.855469 283.476562 C 407.558594 283.371094 408.261719 283.332031 408.96875 283.363281 C 410.953125 283.460938 412.933594 283.601562 414.910156 283.789062 C 416.886719 283.976562 418.859375 284.210938 420.824219 284.488281 C 422.792969 284.765625 424.75 285.089844 426.703125 285.460938 C 428.65625 285.828125 430.597656 286.242188 432.53125 286.699219 C 434.460938 287.15625 436.382812 287.660156 438.292969 288.207031 C 440.203125 288.753906 442.097656 289.34375 443.980469 289.976562 C 445.863281 290.609375 447.730469 291.289062 449.582031 292.007812 C 451.433594 292.726562 453.265625 293.488281 455.082031 294.292969 C 456.898438 295.097656 458.695312 295.945312 460.472656 296.832031 C 462.25 297.71875 464.003906 298.644531 465.738281 299.613281 C 467.472656 300.582031 469.183594 301.589844 470.871094 302.636719 C 472.558594 303.683594 474.222656 304.765625 475.859375 305.890625 C 477.5 307.015625 479.109375 308.175781 480.695312 309.371094 C 482.277344 310.570312 483.835938 311.804688 485.363281 313.074219 C 486.890625 314.339844 488.386719 315.644531 489.855469 316.984375 C 491.324219 318.320312 492.757812 319.695312 494.164062 321.097656 C 495.566406 322.503906 496.941406 323.9375 498.277344 325.40625 C 499.617188 326.875 500.917969 328.371094 502.1875 329.898438 C 503.457031 331.425781 504.691406 332.984375 505.890625 334.566406 C 507.085938 336.152344 508.246094 337.761719 509.371094 339.402344 C 510.496094 341.039062 511.578125 342.703125 512.625 344.390625 C 513.671875 346.078125 514.679688 347.789062 515.648438 349.523438 C 516.617188 351.257812 517.542969 353.011719 518.429688 354.789062 C 519.316406 356.566406 520.164062 358.363281 520.96875 360.179688 C 521.773438 361.996094 522.535156 363.828125 523.253906 365.679688 C 523.972656 367.53125 524.652344 369.398438 525.285156 371.28125 C 525.917969 373.164062 526.507812 375.058594 527.054688 376.96875 C 527.601562 378.878906 528.105469 380.800781 528.5625 382.730469 C 529.019531 384.664062 529.433594 386.605469 529.800781 388.558594 C 530.171875 390.511719 530.492188 392.46875 530.773438 394.4375 C 531.050781 396.402344 531.285156 398.375 531.472656 400.351562 C 531.660156 402.328125 531.800781 404.308594 531.898438 406.292969 C 531.925781 407 531.890625 407.703125 531.78125 408.40625 C 531.671875 409.105469 531.496094 409.789062 531.253906 410.453125 C 531.011719 411.117188 530.707031 411.753906 530.339844 412.359375 C 529.972656 412.964844 529.546875 413.527344 529.070312 414.046875 C 528.589844 414.570312 528.0625 415.039062 527.492188 415.457031 C 526.921875 415.875 526.3125 416.234375 525.671875 416.53125 C 525.03125 416.832031 524.363281 417.0625 523.675781 417.230469 C 522.988281 417.398438 522.289062 417.496094 521.582031 417.523438 Z M 521.125 417.601562 " fill-opacity="1" fill-rule="nonzero"/></svg>