<svg xmlns="http://www.w3.org/2000/svg" xmlns:xlink="http://www.w3.org/1999/xlink" width="1080" zoomAndPan="magnify" viewBox="0 0 810 809.999993" height="1080" preserveAspectRatio="xMidYMid meet" version="1.0"><path fill="#24336b" d="M 405 243 C 315.65625 243 243 315.660156 243 405 C 243 494.34375 315.65625 567 405 567 C 494.339844 567 567 494.34375 567 405 C 567 315.660156 494.339844 243 405 243 Z M 405 555.636719 C 321.824219 555.636719 254.363281 488.175781 254.363281 405 C 254.363281 321.824219 321.824219 254.363281 405 254.363281 C 488.175781 254.363281 555.636719 321.824219 555.636719 405 C 555.636719 488.175781 488.175781 555.636719 405 555.636719 Z M 405 555.636719 " fill-opacity="1" fill-rule="nonzero"/><path fill="#24336b" d="M 473.667969 463.433594 C 483.742188 451.34375 476.328125 444.292969 469.640625 439.214844 C 462.949219 434.136719 447.191406 427.648438 442.355469 433.449219 C 437.519531 439.253906 429.785156 446.507812 423.820312 444.9375 C 413.746094 442.277344 400.890625 428.695312 391.097656 418.902344 C 381.304688 409.109375 367.722656 396.253906 365.0625 386.179688 C 363.492188 380.214844 370.222656 372.921875 376.550781 367.644531 C 382.875 362.363281 376.226562 347.613281 370.785156 340.359375 C 365.347656 333.109375 358.65625 326.257812 346.566406 336.332031 C 334.476562 346.40625 319.203125 373.203125 347.375 414.066406 C 354.585938 424.542969 360.792969 430.589844 370.101562 439.898438 C 379.410156 449.207031 385.457031 455.414062 395.933594 462.625 C 436.796875 490.796875 463.59375 475.523438 473.667969 463.433594 Z M 473.667969 463.433594 " fill-opacity="1" fill-rule="nonzero"/><path fill="#24336b" d="M 439.816406 411.328125 C 439.46875 411.328125 439.117188 411.296875 438.773438 411.234375 C 438.429688 411.167969 438.09375 411.074219 437.765625 410.949219 C 437.4375 410.820312 437.125 410.667969 436.828125 410.480469 C 436.527344 410.296875 436.25 410.085938 435.992188 409.847656 C 435.730469 409.613281 435.496094 409.351562 435.285156 409.074219 C 435.074219 408.792969 434.890625 408.496094 434.738281 408.179688 C 434.582031 407.863281 434.457031 407.539062 434.363281 407.199219 C 434.269531 406.863281 434.207031 406.519531 434.175781 406.167969 C 434.097656 405.289062 433.980469 404.417969 433.824219 403.546875 C 433.667969 402.679688 433.476562 401.820312 433.246094 400.96875 C 433.015625 400.117188 432.75 399.277344 432.445312 398.449219 C 432.144531 397.621094 431.804688 396.808594 431.429688 396.007812 C 431.058594 395.210938 430.648438 394.429688 430.207031 393.664062 C 429.765625 392.902344 429.292969 392.160156 428.785156 391.4375 C 428.277344 390.714844 427.742188 390.015625 427.175781 389.339844 C 426.605469 388.664062 426.011719 388.015625 425.386719 387.390625 C 424.765625 386.769531 424.113281 386.171875 423.441406 385.605469 C 422.765625 385.039062 422.066406 384.503906 421.34375 383.996094 C 420.621094 383.488281 419.878906 383.015625 419.113281 382.574219 C 418.351562 382.132812 417.570312 381.722656 416.773438 381.351562 C 415.972656 380.976562 415.160156 380.636719 414.332031 380.335938 C 413.503906 380.03125 412.664062 379.765625 411.8125 379.535156 C 410.960938 379.304688 410.101562 379.113281 409.230469 378.957031 C 408.363281 378.800781 407.492188 378.683594 406.613281 378.605469 C 406.238281 378.570312 405.875 378.503906 405.515625 378.398438 C 405.160156 378.292969 404.8125 378.152344 404.484375 377.980469 C 404.152344 377.808594 403.84375 377.605469 403.550781 377.371094 C 403.261719 377.136719 402.996094 376.875 402.757812 376.589844 C 402.515625 376.304688 402.308594 375.996094 402.128906 375.667969 C 401.949219 375.34375 401.804688 375 401.691406 374.644531 C 401.582031 374.289062 401.503906 373.925781 401.464844 373.554688 C 401.425781 373.183594 401.421875 372.8125 401.453125 372.4375 C 401.488281 372.066406 401.554688 371.703125 401.660156 371.34375 C 401.765625 370.984375 401.90625 370.640625 402.078125 370.308594 C 402.25 369.980469 402.453125 369.667969 402.6875 369.378906 C 402.921875 369.085938 403.183594 368.824219 403.46875 368.582031 C 403.753906 368.34375 404.0625 368.132812 404.390625 367.953125 C 404.714844 367.777344 405.058594 367.628906 405.414062 367.519531 C 405.769531 367.40625 406.132812 367.332031 406.503906 367.292969 C 406.875 367.25 407.246094 367.246094 407.621094 367.28125 C 408.824219 367.390625 410.023438 367.554688 411.214844 367.765625 C 412.40625 367.980469 413.589844 368.246094 414.757812 368.5625 C 415.925781 368.878906 417.078125 369.246094 418.214844 369.664062 C 419.351562 370.082031 420.46875 370.546875 421.566406 371.058594 C 422.664062 371.574219 423.734375 372.132812 424.785156 372.738281 C 425.832031 373.347656 426.851562 373.996094 427.84375 374.691406 C 428.835938 375.386719 429.792969 376.125 430.722656 376.902344 C 431.648438 377.679688 432.542969 378.5 433.398438 379.355469 C 434.253906 380.210938 435.074219 381.101562 435.851562 382.027344 C 436.632812 382.957031 437.371094 383.914062 438.066406 384.90625 C 438.761719 385.894531 439.414062 386.914062 440.023438 387.960938 C 440.628906 389.011719 441.191406 390.082031 441.707031 391.175781 C 442.222656 392.273438 442.6875 393.390625 443.105469 394.527344 C 443.523438 395.664062 443.890625 396.816406 444.210938 397.984375 C 444.527344 399.152344 444.792969 400.332031 445.007812 401.523438 C 445.226562 402.714844 445.386719 403.914062 445.5 405.121094 C 445.535156 405.492188 445.53125 405.867188 445.492188 406.238281 C 445.449219 406.609375 445.375 406.976562 445.261719 407.332031 C 445.152344 407.691406 445.007812 408.035156 444.828125 408.363281 C 444.648438 408.691406 444.441406 409 444.199219 409.289062 C 443.960938 409.574219 443.695312 409.835938 443.40625 410.074219 C 443.117188 410.308594 442.804688 410.515625 442.472656 410.691406 C 442.140625 410.863281 441.796875 411.003906 441.4375 411.113281 C 441.082031 411.21875 440.714844 411.292969 440.339844 411.328125 Z M 439.816406 411.328125 " fill-opacity="1" fill-rule="nonzero"/><path fill="#24336b" d="M 466.253906 411.648438 C 465.890625 411.648438 465.53125 411.617188 465.175781 411.546875 C 464.816406 411.476562 464.472656 411.375 464.132812 411.242188 C 463.796875 411.105469 463.476562 410.941406 463.171875 410.742188 C 462.863281 410.546875 462.582031 410.324219 462.320312 410.070312 C 462.058594 409.820312 461.820312 409.546875 461.609375 409.25 C 461.402344 408.953125 461.222656 408.640625 461.070312 408.308594 C 460.921875 407.976562 460.804688 407.636719 460.722656 407.28125 C 460.636719 406.929688 460.585938 406.570312 460.570312 406.207031 C 460.488281 404.464844 460.324219 402.726562 460.082031 401 C 459.835938 399.269531 459.515625 397.554688 459.113281 395.855469 C 458.710938 394.15625 458.230469 392.480469 457.675781 390.824219 C 457.117188 389.167969 456.484375 387.542969 455.78125 385.945312 C 455.074219 384.351562 454.292969 382.789062 453.445312 381.265625 C 452.59375 379.738281 451.675781 378.257812 450.6875 376.816406 C 449.699219 375.375 448.648438 373.984375 447.53125 372.640625 C 446.414062 371.296875 445.242188 370.007812 444.007812 368.773438 C 442.769531 367.539062 441.480469 366.363281 440.140625 365.25 C 438.796875 364.132812 437.402344 363.082031 435.964844 362.09375 C 434.523438 361.105469 433.042969 360.1875 431.515625 359.335938 C 429.992188 358.484375 428.429688 357.707031 426.832031 357 C 425.238281 356.292969 423.609375 355.664062 421.957031 355.105469 C 420.300781 354.550781 418.625 354.070312 416.925781 353.667969 C 415.226562 353.265625 413.511719 352.945312 411.78125 352.699219 C 410.050781 352.457031 408.316406 352.292969 406.570312 352.207031 C 406.199219 352.191406 405.832031 352.136719 405.46875 352.046875 C 405.105469 351.960938 404.753906 351.835938 404.417969 351.675781 C 404.078125 351.515625 403.757812 351.328125 403.457031 351.105469 C 403.160156 350.882812 402.882812 350.636719 402.628906 350.359375 C 402.378906 350.082031 402.15625 349.785156 401.964844 349.464844 C 401.769531 349.144531 401.609375 348.8125 401.484375 348.460938 C 401.355469 348.109375 401.265625 347.746094 401.210938 347.378906 C 401.152344 347.007812 401.132812 346.636719 401.152344 346.265625 C 401.167969 345.890625 401.222656 345.523438 401.3125 345.160156 C 401.402344 344.800781 401.527344 344.449219 401.683594 344.109375 C 401.84375 343.773438 402.03125 343.453125 402.253906 343.152344 C 402.476562 342.851562 402.726562 342.574219 403 342.324219 C 403.277344 342.070312 403.574219 341.851562 403.894531 341.65625 C 404.214844 341.464844 404.550781 341.304688 404.902344 341.175781 C 405.253906 341.050781 405.613281 340.957031 405.980469 340.902344 C 406.351562 340.847656 406.722656 340.828125 407.09375 340.84375 C 409.1875 340.945312 411.273438 341.144531 413.351562 341.4375 C 415.425781 341.730469 417.484375 342.121094 419.523438 342.601562 C 421.5625 343.085938 423.578125 343.664062 425.5625 344.332031 C 427.550781 345 429.5 345.761719 431.417969 346.609375 C 433.335938 347.457031 435.210938 348.394531 437.039062 349.414062 C 438.871094 350.4375 440.648438 351.539062 442.378906 352.726562 C 444.109375 353.910156 445.777344 355.175781 447.390625 356.515625 C 449.003906 357.855469 450.550781 359.265625 452.03125 360.746094 C 453.515625 362.230469 454.925781 363.777344 456.265625 365.390625 C 457.605469 367.003906 458.867188 368.671875 460.054688 370.402344 C 461.238281 372.128906 462.34375 373.910156 463.367188 375.742188 C 464.386719 377.570312 465.324219 379.445312 466.171875 381.363281 C 467.019531 383.277344 467.78125 385.230469 468.449219 387.21875 C 469.117188 389.203125 469.695312 391.21875 470.175781 393.257812 C 470.660156 395.296875 471.050781 397.355469 471.34375 399.429688 C 471.636719 401.507812 471.835938 403.589844 471.9375 405.683594 C 471.953125 406.058594 471.933594 406.429688 471.875 406.796875 C 471.816406 407.167969 471.726562 407.527344 471.597656 407.878906 C 471.46875 408.230469 471.308594 408.566406 471.113281 408.882812 C 470.921875 409.203125 470.695312 409.5 470.445312 409.773438 C 470.191406 410.050781 469.914062 410.296875 469.613281 410.519531 C 469.3125 410.738281 468.992188 410.929688 468.652344 411.085938 C 468.3125 411.242188 467.960938 411.367188 467.601562 411.453125 C 467.238281 411.542969 466.867188 411.59375 466.496094 411.609375 Z M 466.253906 411.648438 " fill-opacity="1" fill-rule="nonzero"/></svg>