<svg xmlns="http://www.w3.org/2000/svg" xmlns:xlink="http://www.w3.org/1999/xlink" width="1080" zoomAndPan="magnify" viewBox="0 0 810 809.999993" height="1080" preserveAspectRatio="xMidYMid meet" version="1.0"><defs><clipPath id="e1baecd9c3"><path d="M 9.878906 133.355469 L 801.128906 133.355469 L 801.128906 677.105469 L 9.878906 677.105469 Z M 9.878906 133.355469 " clip-rule="nonzero"/></clipPath></defs><path fill="#000000" d="M 640.40625 602.957031 C 633.59375 602.957031 628.042969 597.40625 628.042969 590.597656 C 628.042969 583.792969 633.59375 578.242188 640.40625 578.242188 C 647.214844 578.242188 652.769531 583.792969 652.769531 590.597656 C 652.769531 597.40625 647.214844 602.957031 640.40625 602.957031 Z M 640.40625 553.523438 C 619.929688 553.523438 603.316406 570.132812 603.316406 590.597656 C 603.316406 611.066406 619.929688 627.671875 640.40625 627.671875 C 660.882812 627.671875 677.492188 611.066406 677.492188 590.597656 C 677.492188 570.132812 660.882812 553.523438 640.40625 553.523438 " fill-opacity="1" fill-rule="nonzero"/><path fill="#000000" d="M 170.605469 602.957031 C 163.796875 602.957031 158.242188 597.40625 158.242188 590.597656 C 158.242188 583.792969 163.796875 578.242188 170.605469 578.242188 C 177.414062 578.242188 182.96875 583.792969 182.96875 590.597656 C 182.96875 597.40625 177.414062 602.957031 170.605469 602.957031 Z M 170.605469 553.523438 C 150.128906 553.523438 133.515625 570.132812 133.515625 590.597656 C 133.515625 611.066406 150.128906 627.671875 170.605469 627.671875 C 191.082031 627.671875 207.695312 611.066406 207.695312 590.597656 C 207.695312 570.132812 191.082031 553.523438 170.605469 553.523438 " fill-opacity="1" fill-rule="nonzero"/><g clip-path="url(#e1baecd9c3)"><path fill="#000000" d="M 776.398438 590.597656 C 776.398438 597.40625 770.84375 602.957031 764.035156 602.957031 L 725.933594 602.957031 C 726.558594 598.902344 726.945312 594.800781 726.945312 590.597656 C 726.945312 542.90625 688.117188 504.09375 640.40625 504.09375 C 592.691406 504.09375 553.863281 542.90625 553.863281 590.597656 C 553.863281 594.800781 554.25 598.902344 554.875 602.957031 L 529.136719 602.957031 L 529.136719 256.933594 L 550.191406 256.933594 C 563.328125 256.933594 575.59375 263.980469 582.210938 275.328125 L 643.59375 380.515625 L 566.226562 380.515625 C 559.417969 380.515625 553.863281 386.066406 553.863281 392.871094 C 553.863281 399.679688 559.417969 405.230469 566.226562 405.230469 L 665.132812 405.230469 C 669.574219 405.230469 673.628906 402.863281 675.851562 399.003906 C 678.074219 395.1875 678.023438 390.457031 675.804688 386.644531 L 603.605469 262.871094 C 592.546875 243.949219 572.070312 232.21875 550.191406 232.21875 L 529.136719 232.21875 L 529.136719 207.503906 L 545.460938 207.503906 C 576.707031 207.503906 605.585938 224.398438 620.894531 251.625 L 692.175781 378.292969 C 700.722656 393.453125 712.941406 406.628906 727.429688 416.285156 L 737.859375 423.234375 C 762.007812 439.3125 776.398438 466.199219 776.398438 495.210938 Z M 640.40625 652.390625 C 606.308594 652.390625 578.589844 624.679688 578.589844 590.597656 C 578.589844 556.519531 606.308594 528.808594 640.40625 528.808594 C 674.5 528.808594 702.21875 556.519531 702.21875 590.597656 C 702.21875 624.679688 674.5 652.390625 640.40625 652.390625 Z M 492.046875 602.957031 L 256.132812 602.957031 C 256.761719 598.902344 257.148438 594.800781 257.148438 590.597656 C 257.148438 542.90625 218.320312 504.09375 170.605469 504.09375 C 122.890625 504.09375 84.0625 542.90625 84.0625 590.597656 C 84.0625 594.800781 84.449219 598.902344 85.078125 602.957031 L 46.972656 602.957031 C 40.164062 602.957031 34.609375 597.40625 34.609375 590.597656 L 34.609375 170.429688 C 34.609375 163.621094 40.164062 158.070312 46.972656 158.070312 L 492.046875 158.070312 C 498.855469 158.070312 504.410156 163.621094 504.410156 170.429688 L 504.410156 590.597656 C 504.410156 597.40625 498.855469 602.957031 492.046875 602.957031 Z M 170.605469 652.390625 C 136.511719 652.390625 108.789062 624.679688 108.789062 590.597656 C 108.789062 556.519531 136.511719 528.808594 170.605469 528.808594 C 204.699219 528.808594 232.421875 556.519531 232.421875 590.597656 C 232.421875 624.679688 204.699219 652.390625 170.605469 652.390625 Z M 751.578125 402.671875 L 741.144531 395.71875 C 729.894531 388.1875 720.378906 378.003906 713.714844 366.175781 L 642.433594 239.507812 C 622.777344 204.507812 585.589844 182.785156 545.460938 182.785156 L 529.136719 182.785156 L 529.136719 170.429688 C 529.136719 149.960938 512.523438 133.355469 492.046875 133.355469 L 46.972656 133.355469 C 26.496094 133.355469 9.882812 149.960938 9.882812 170.429688 L 9.882812 590.597656 C 9.882812 611.066406 26.496094 627.671875 46.972656 627.671875 L 92.515625 627.671875 C 106.472656 656.832031 136.171875 677.105469 170.605469 677.105469 C 205.039062 677.105469 234.738281 656.832031 248.695312 627.671875 L 492.046875 627.671875 C 497.746094 627.671875 503.105469 626.273438 507.933594 623.957031 C 510.207031 626.226562 513.296875 627.671875 516.773438 627.671875 L 562.3125 627.671875 C 576.269531 656.832031 605.972656 677.105469 640.40625 677.105469 C 674.839844 677.105469 704.539062 656.832031 718.496094 627.671875 L 764.035156 627.671875 C 784.511719 627.671875 801.125 611.066406 801.125 590.597656 L 801.125 495.210938 C 801.125 457.945312 782.628906 423.332031 751.578125 402.671875 " fill-opacity="1" fill-rule="nonzero"/></g><path fill="#000000" d="M 590.953125 429.945312 L 566.226562 429.945312 C 559.417969 429.945312 553.863281 435.496094 553.863281 442.304688 C 553.863281 449.109375 559.417969 454.660156 566.226562 454.660156 L 590.953125 454.660156 C 597.761719 454.660156 603.316406 449.109375 603.316406 442.304688 C 603.316406 435.496094 597.761719 429.945312 590.953125 429.945312 " fill-opacity="1" fill-rule="nonzero"/><path fill="#000000" d="M 417.09375 413.242188 C 415.308594 408.5625 410.816406 405.230469 405.503906 405.230469 L 318.960938 405.230469 L 318.960938 380.515625 L 405.503906 380.515625 C 410.816406 380.515625 415.308594 377.183594 417.09375 372.5 L 437.476562 392.871094 Z M 318.960938 467.019531 L 269.511719 467.019531 L 269.511719 405.230469 C 269.511719 398.421875 263.957031 392.871094 257.148438 392.871094 L 182.96875 392.871094 C 176.160156 392.871094 170.605469 398.421875 170.605469 405.230469 L 170.605469 467.019531 L 121.152344 467.019531 L 121.152344 318.722656 L 318.960938 318.722656 L 318.960938 355.796875 L 306.601562 355.796875 C 299.789062 355.796875 294.238281 361.347656 294.238281 368.15625 L 294.238281 417.585938 C 294.238281 424.394531 299.789062 429.945312 306.601562 429.945312 L 318.960938 429.945312 Z M 195.332031 467.019531 L 195.332031 417.585938 L 244.785156 417.585938 L 244.785156 467.019531 Z M 220.347656 211.21875 L 319.6875 294.007812 L 120.960938 294.007812 Z M 414.246094 334.703125 C 410.71875 331.179688 405.410156 330.117188 400.773438 332.046875 C 396.136719 333.929688 393.140625 338.417969 393.140625 343.441406 L 393.140625 355.796875 L 343.6875 355.796875 L 343.6875 318.722656 L 353.832031 318.722656 C 359.046875 318.722656 363.683594 315.441406 365.46875 310.566406 C 367.257812 305.691406 365.757812 300.1875 361.75 296.855469 L 228.21875 185.636719 C 223.632812 181.820312 217.015625 181.820312 212.425781 185.636719 L 81.503906 294.683594 C 76.675781 296.375 73.246094 300.960938 73.246094 306.367188 C 73.246094 313.171875 78.75 318.722656 85.609375 318.722656 L 96.425781 318.722656 L 96.425781 479.378906 C 96.425781 486.183594 101.980469 491.734375 108.789062 491.734375 L 331.324219 491.734375 C 338.136719 491.734375 343.6875 486.183594 343.6875 479.378906 L 343.6875 429.945312 L 393.140625 429.945312 L 393.140625 442.304688 C 393.140625 447.324219 396.136719 451.8125 400.773438 453.695312 C 402.316406 454.371094 403.910156 454.660156 405.503906 454.660156 C 408.742188 454.660156 411.878906 453.40625 414.246094 451.042969 L 463.699219 401.609375 C 468.527344 396.78125 468.527344 388.960938 463.699219 384.132812 L 414.246094 334.703125 " fill-opacity="1" fill-rule="nonzero"/></svg>